<?xml version="1.0" encoding="utf-8"?>
<!-- Generator: Adobe Illustrator 26.3.1, SVG Export Plug-In . SVG Version: 6.00 Build 0)  -->
<svg version="1.1" xmlns="http://www.w3.org/2000/svg" xmlns:xlink="http://www.w3.org/1999/xlink" x="0px" y="0px"
	 viewBox="0 0 901.1 901.1" style="enable-background:new 0 0 901.1 901.1;" xml:space="preserve">
<style type="text/css">
	.st0{fill:#4051B5;}
	.st1{fill:#FFFFFF;}
</style>
<g id="Calque_2">
	<circle class="st0" cx="450.5" cy="450.5" r="450.5"/>
</g>
<g id="Calque_1">
	<path class="st1" d="M531.8,177.5c-19-5.5-38.7,5.6-44.2,24.6L344.7,702c-5.5,19,5.6,38.7,24.6,44.2c19,5.5,38.7-5.6,44.2-24.6
		l142.8-500C561.8,202.7,550.7,182.9,531.8,177.5L531.8,177.5z M621.7,311.5c-13.9,13.9-13.9,36.6,0,50.6l99.7,99.8l-99.8,99.8
		c-13.9,13.9-13.9,36.6,0,50.6c13.9,13.9,36.6,13.9,50.6,0l125-125c13.9-13.9,13.9-36.6,0-50.6l-125-125
		c-13.9-13.9-36.6-13.9-50.6,0L621.7,311.5z M279.5,311.5c-13.9-13.9-36.6-13.9-50.6,0l-125,125c-13.9,13.9-13.9,36.6,0,50.6
		l125,125c13.9,13.9,36.6,13.9,50.6,0s13.9-36.6,0-50.6l-99.8-99.7l99.8-99.8C293.4,348.1,293.4,325.4,279.5,311.5L279.5,311.5z"/>
</g>
</svg>
