<?xml version="1.0" encoding="utf-8"?>
<!-- Generator: Adobe Illustrator 25.4.1, SVG Export Plug-In . SVG Version: 6.00 Build 0)  -->
<svg version="1.1" id="Calque_1" xmlns="http://www.w3.org/2000/svg" xmlns:xlink="http://www.w3.org/1999/xlink" x="0px" y="0px"
	 viewBox="0 0 1000 941.04" style="enable-background:new 0 0 1000 941.04;" xml:space="preserve">
<style type="text/css">
	.st0{fill:#333333;}
	.st1{fill:#FFD866;}
	.st2{fill:#EC6189;}
	.st3{fill:#010202;}
</style>
<g>
	<g>
		<path class="st0" d="M33.62,23.09c-1.53,28.45-3.06,56.91-4.07,85.39c-1.01,28.46-1.49,56.94-0.93,85.41
			c0.32,16.02,0.97,32.03,2.02,48.01c0.05,0.77,1.09,0.97,1.64,0.92c0.98-0.08,2.14-0.76,2.88-1.35c1.67-1.34,3.34-3.25,3.19-5.51
			c-1.86-28.24-2.38-56.55-2.11-84.84c0.27-28.24,1.34-56.47,2.69-84.67c0.76-15.93,1.62-31.86,2.48-47.78
			c0.12-2.19-2.23-1.78-3.54-1.01C36.11,18.7,33.74,20.86,33.62,23.09L33.62,23.09z"/>
	</g>
</g>
<g>
	<g>
		<path class="st0" d="M75.6,28.69c-0.88,28.15-2.02,56.3-3.43,84.43c-1.41,28.13-3.08,56.25-5.01,84.35
			c-1.08,15.75-2.25,31.49-3.5,47.23c-0.17,2.2,2.26,1.76,3.54,1.01c1.79-1.06,4.06-3.18,4.24-5.43
			c2.23-28.08,4.19-56.18,5.89-84.29c1.7-28.11,3.14-56.25,4.31-84.39c0.66-15.77,1.23-31.55,1.73-47.33
			c0.07-2.17-2.19-1.8-3.54-1.01C78.13,24.27,75.67,26.48,75.6,28.69L75.6,28.69z"/>
	</g>
</g>
<g>
	<g>
		<path class="st0" d="M113.46,41.49c-2.26,24.9-4.07,49.84-5.4,74.8c-1.32,24.8-2.18,49.62-2.58,74.46
			c-0.22,14.07-0.3,28.14-0.23,42.22c0.01,2.15,2.14,1.84,3.54,1.01c1.65-0.98,4.25-3.25,4.24-5.43c-0.13-25,0.21-50,1.02-74.99
			c0.8-24.82,2.07-49.63,3.8-74.4c0.98-14.04,2.11-28.07,3.38-42.08c0.2-2.21-2.28-1.75-3.54-1.01
			C115.89,37.13,113.67,39.23,113.46,41.49L113.46,41.49z"/>
	</g>
</g>
<g>
	<g>
		<path class="st0" d="M143.99,31.77c-0.32,25.83-0.99,51.65-2.01,77.46c-1.02,25.73-2.4,51.44-4.13,77.13
			c-0.98,14.5-2.07,29-3.27,43.48c-0.18,2.2,2.27,1.76,3.54,1.01c1.8-1.06,4.05-3.18,4.24-5.43c2.13-25.74,3.92-51.51,5.34-77.3
			c1.42-25.71,2.49-51.43,3.2-77.17c0.4-14.53,0.69-29.06,0.87-43.59c0.03-2.16-2.16-1.82-3.54-1.01
			C146.55,27.34,144.02,29.58,143.99,31.77L143.99,31.77z"/>
	</g>
</g>
<g>
	<g>
		<path class="st0" d="M188.24,28.25c-4.04,26.77-7.61,53.6-10.69,80.49c-3.09,26.89-5.7,53.84-7.83,80.82
			c-1.19,15.14-2.24,30.29-3.13,45.45c-0.13,2.19,2.23,1.78,3.54,1.01c1.76-1.04,4.11-3.2,4.24-5.43
			c1.59-27.02,3.66-54.01,6.21-80.96c2.55-26.95,5.58-53.85,9.09-80.69c1.97-15.06,4.09-30.09,6.35-45.11
			c0.34-2.24-2.37-1.7-3.54-1.01C190.57,23.95,188.58,25.96,188.24,28.25L188.24,28.25z"/>
	</g>
</g>
<g>
	<g>
		<path class="st0" d="M236.62,20.17c-7.06,28.52-13.22,57.26-18.41,86.18c-5.13,28.62-9.33,57.4-12.58,86.29
			c-1.83,16.3-3.36,32.64-4.6,49c-0.17,2.2,2.26,1.77,3.54,1.01c1.79-1.06,4.07-3.18,4.24-5.43c2.18-28.99,5.31-57.91,9.38-86.7
			c4.06-28.71,9.06-57.28,14.98-85.66c3.31-15.84,6.89-31.62,10.78-47.33c0.17-0.68,0.45-1.62-0.14-2.21
			c-0.55-0.55-1.59-0.38-2.21-0.14C239.67,15.92,237.15,18.02,236.62,20.17L236.62,20.17z"/>
	</g>
</g>
<g>
	<g>
		<path class="st0" d="M278.41,32.34c-2.28,25.6-4.95,51.16-8.01,76.68c-3.07,25.52-6.53,50.98-10.38,76.39
			c-2.17,14.33-4.47,28.65-6.9,42.94c-0.38,2.24,2.4,1.68,3.54,1.01c1.94-1.15,3.85-3.13,4.24-5.43c4.29-25.34,8.2-50.74,11.71-76.2
			c3.51-25.46,6.63-50.97,9.35-76.53c1.54-14.42,2.94-28.84,4.23-43.28c0.2-2.21-2.28-1.75-3.54-1.01
			C280.84,27.98,278.61,30.08,278.41,32.34L278.41,32.34z"/>
	</g>
</g>
<g>
	<g>
		<path class="st0" d="M319.68,36.95c-3.12,25.88-5.51,51.85-7.16,77.87c-1.64,25.85-2.55,51.75-2.74,77.66
			c-0.1,14.68,0.03,29.37,0.39,44.05c0.05,2.13,2.11,1.86,3.54,1.01c1.1-0.65,2.13-1.52,2.89-2.56c0.57-0.78,1.37-1.87,1.35-2.88
			c-0.64-26.06-0.55-52.14,0.28-78.2c0.82-25.89,2.38-51.76,4.66-77.56c1.29-14.63,2.82-29.23,4.57-43.81
			c0.27-2.22-2.33-1.72-3.54-1.01C322.06,32.62,319.96,34.67,319.68,36.95L319.68,36.95z"/>
	</g>
</g>
<g>
	<g>
		<path class="st0" d="M367.57,44.53c0.4,11.91-2.8,23.47-4.73,35.12c-1.99,11.98-1.81,24.08-2,36.18
			c-0.2,12.3-1.21,24.55-2.22,36.81c-1.01,12.22-2.02,24.44-3.02,36.66c-1.14,13.87-2.29,27.74-3.43,41.61
			c-0.18,2.2,2.27,1.76,3.54,1.01c1.8-1.06,4.06-3.18,4.24-5.43c2.03-24.6,4.06-49.2,6.09-73.81c1.01-12.26,2.13-24.53,2.49-36.83
			c0.36-12.13-0.14-24.33,1.47-36.39c1.74-13.12,5.81-25.99,5.36-39.34c-0.07-2.12-2.09-1.86-3.54-1.01
			c-1.1,0.65-2.13,1.52-2.89,2.56C368.36,42.43,367.54,43.52,367.57,44.53L367.57,44.53z"/>
	</g>
</g>
<g>
	<g>
		<path class="st0" d="M426.26,33.8c-2.98,24.67-6.48,49.28-10.51,73.8c-4.02,24.44-8.57,48.79-13.64,73.04
			c-2.86,13.68-5.89,27.33-9.08,40.94c-0.53,2.26,2.49,1.63,3.54,1.01c2.05-1.21,3.69-3.1,4.24-5.43
			c5.67-24.19,10.83-48.51,15.46-72.93c4.61-24.34,8.7-48.77,12.26-73.28c2.01-13.83,3.85-27.69,5.52-41.57
			c0.27-2.22-2.33-1.72-3.54-1.01C428.64,29.47,426.53,31.52,426.26,33.8L426.26,33.8z"/>
	</g>
</g>
<g>
	<g>
		<path class="st0" d="M469.78,33.39c-4.23,26.32-8.46,52.65-11.62,79.12c-1.56,13.02-2.81,26.06-3.78,39.13
			c-0.95,12.71-1.77,25.43-3.18,38.1c-1.57,14.1-3.89,28.16-8.01,41.76c-0.2,0.65-0.43,1.64,0.14,2.21
			c0.55,0.55,1.59,0.38,2.21,0.14c2.05-0.78,4.35-2.84,5-5c7.5-24.81,9.36-50.72,11.24-76.42c1.94-26.48,4.98-52.8,8.85-79.07
			c2.19-14.82,4.56-29.6,6.94-44.39c0.36-2.24-2.39-1.69-3.54-1.01C472.1,29.1,470.15,31.09,469.78,33.39L469.78,33.39z"/>
	</g>
</g>
<g>
	<g>
		<path class="st0" d="M524.44,26.75c-7.33,25.66-11.89,52.03-14.58,78.56c-2.69,26.52-3.59,53.18-3.85,79.82
			c-0.14,14.92-0.08,29.84-0.02,44.76c0.01,2.15,2.14,1.84,3.54,1.01c1.65-0.98,4.25-3.25,4.24-5.43
			c-0.12-26.52-0.21-53.04,0.81-79.54c1.02-26.39,3.17-52.78,7.57-78.83c2.45-14.49,5.6-28.86,9.63-42.99
			c0.19-0.66,0.44-1.63-0.14-2.21c-0.55-0.55-1.59-0.38-2.21-0.14C527.42,22.52,525.06,24.59,524.44,26.75L524.44,26.75z"/>
	</g>
</g>
<g>
	<g>
		<path class="st0" d="M567.37,30.64c-7.24,25.24-12.08,51.11-15.31,77.15c-3.22,26-4.9,52.17-6.01,78.33
			c-0.63,14.76-1.07,29.53-1.52,44.29c-0.07,2.17,2.19,1.81,3.54,1.01c1.71-1.01,4.17-3.22,4.24-5.43
			c0.78-26.12,1.58-52.26,3.36-78.34c1.77-25.91,4.51-51.79,9.2-77.35c2.61-14.25,5.84-28.38,9.84-42.31
			c0.19-0.66,0.44-1.63-0.14-2.21c-0.55-0.55-1.59-0.38-2.21-0.14C570.35,26.41,567.99,28.48,567.37,30.64L567.37,30.64z"/>
	</g>
</g>
<g>
	<g>
		<path class="st0" d="M604.52,227.51c-1.02-25.15-1.17-50.34-0.45-75.5c0.72-25,2.31-49.97,4.76-74.86
			c1.39-14.08,3.05-28.14,4.99-42.15c0.31-2.23-2.35-1.71-3.54-1.01c-1.89,1.12-3.92,3.14-4.24,5.43
			c-3.44,24.94-6.03,49.99-7.73,75.11c-1.69,24.95-2.52,49.96-2.48,74.97c0.02,14.15,0.32,28.3,0.9,42.44
			c0.09,2.12,2.08,1.87,3.54,1.01c1.1-0.65,2.13-1.52,2.89-2.56C603.73,229.62,604.56,228.52,604.52,227.51L604.52,227.51z"/>
	</g>
</g>
<g>
	<g>
		<path class="st0" d="M653.67,31.76c0.33,27.4,0.57,54.8,0.73,82.21c0.16,27.32,0.23,54.64,0.21,81.96
			c-0.01,15.41-0.05,30.82-0.11,46.23c-0.01,2.15,2.15,1.83,3.54,1.01c1.67-0.99,4.23-3.24,4.24-5.43
			c0.11-27.4,0.14-54.81,0.08-82.21c-0.06-27.32-0.21-54.64-0.44-81.96c-0.13-15.41-0.29-30.82-0.47-46.22
			c-0.03-2.14-2.12-1.84-3.54-1.01C656.27,27.3,653.64,29.58,653.67,31.76L653.67,31.76z"/>
	</g>
</g>
<g>
	<g>
		<path class="st0" d="M704.58,34.91c-3.82,25.5-6.65,51.15-8.49,76.87c-1.82,25.56-2.66,51.18-2.52,76.8
			c0.08,14.45,0.48,28.9,1.19,43.34c0.04,0.74,0.1,1.38,0.92,1.64c0.8,0.24,1.97-0.25,2.62-0.63c1.1-0.65,2.13-1.52,2.89-2.56
			c0.56-0.77,1.4-1.88,1.35-2.88c-1.26-25.76-1.54-51.56-0.8-77.33c0.73-25.61,2.44-51.19,5.13-76.67
			c1.52-14.37,3.35-28.71,5.49-43.01c0.33-2.24-2.37-1.7-3.54-1.01C706.91,30.6,704.92,32.61,704.58,34.91L704.58,34.91z"/>
	</g>
</g>
<g>
	<g>
		<path class="st0" d="M747.7,31.78c-1.32,25.44-2.65,50.89-3.97,76.33c-1.31,25.28-2.63,50.55-3.94,75.83
			c-0.74,14.3-1.49,28.6-2.23,42.9c-0.11,2.19,2.22,1.79,3.54,1.01c1.75-1.03,4.13-3.2,4.24-5.43c1.32-25.44,2.65-50.89,3.97-76.33
			c1.31-25.28,2.63-50.55,3.94-75.83c0.74-14.3,1.49-28.6,2.23-42.9c0.11-2.19-2.22-1.79-3.54-1.01
			C750.2,27.38,747.82,29.55,747.7,31.78L747.7,31.78z"/>
	</g>
</g>
<g>
	<g>
		<path class="st0" d="M781.42,34.43c-1.64,12.43-3.27,24.86-4.45,37.34c-1.18,12.5-1.68,25-1.86,37.55
			c-0.36,25.19-1.75,50.3-3.82,75.41c-1.17,14.21-2.5,28.4-3.84,42.59c-0.21,2.21,2.29,1.75,3.54,1.01
			c1.82-1.08,4.03-3.17,4.24-5.43c2.36-25.08,4.71-50.17,6.17-75.32c0.73-12.57,1.22-25.14,1.41-37.73
			c0.19-12.55,0.44-25.06,1.49-37.57c1.19-14.13,3.04-28.2,4.89-42.26c0.29-2.23-2.34-1.71-3.54-1.01
			C783.78,30.11,781.72,32.14,781.42,34.43L781.42,34.43z"/>
	</g>
</g>
<g>
	<g>
		<path class="st0" d="M825.36,18.98c-2.22,27.99-4.11,56-5.68,84.04c-1.55,27.87-2.78,55.75-3.69,83.65
			c-0.51,15.77-0.92,31.55-1.22,47.33c-0.04,2.16,2.17,1.82,3.54,1.01c1.69-1,4.2-3.23,4.24-5.43c0.54-28.07,1.41-56.14,2.61-84.19
			c1.19-27.89,2.71-55.76,4.55-83.61c1.04-15.75,2.19-31.49,3.43-47.22c0.17-2.2-2.26-1.76-3.54-1.01
			C827.81,14.61,825.54,16.73,825.36,18.98L825.36,18.98z"/>
	</g>
</g>
<g>
	<g>
		<path class="st0" d="M872.45,24.2c-2.81,27.56-5.4,55.14-7.74,82.74c-2.33,27.44-4.42,54.89-6.28,82.36
			c-1.05,15.56-2.03,31.12-2.94,46.68c-0.13,2.19,2.23,1.78,3.54,1.01c1.76-1.04,4.11-3.2,4.24-5.43
			c1.61-27.65,3.45-55.29,5.53-82.91c2.07-27.46,4.37-54.89,6.9-82.31c1.44-15.53,2.95-31.04,4.53-46.55
			c0.23-2.21-2.3-1.74-3.54-1.01C874.86,19.85,872.68,21.93,872.45,24.2L872.45,24.2z"/>
	</g>
</g>
<g>
	<g>
		<path class="st0" d="M907.93,25.13c0.23,27.32,0.47,54.64,0.7,81.95s0.47,54.64,0.7,81.95c0.13,15.32,0.26,30.65,0.39,45.97
			c0.02,2.14,2.13,1.84,3.54,1.01c1.65-0.97,4.26-3.26,4.24-5.43c-0.23-27.32-0.47-54.64-0.7-81.95
			c-0.23-27.32-0.47-54.64-0.7-81.95c-0.13-15.32-0.26-30.65-0.39-45.97c-0.02-2.14-2.13-1.84-3.54-1.01
			C910.53,20.67,907.91,22.95,907.93,25.13L907.93,25.13z"/>
	</g>
</g>
<g>
	<g>
		<path class="st0" d="M955.8,31.92c2.47,25.6,2.53,51.36,1.7,77.05c-0.83,25.69-2.53,51.34-3.63,77.01
			c-0.62,14.48-1.04,28.96-1.02,43.45c0,2.15,2.14,1.83,3.54,1.01c1.66-0.98,4.24-3.25,4.24-5.43c-0.04-25.95,1.36-51.87,2.72-77.78
			c1.35-25.79,2.65-51.61,2.37-77.44c-0.16-14.62-0.82-29.25-2.22-43.8c-0.07-0.77-1.06-0.97-1.64-0.92
			c-0.98,0.08-2.14,0.76-2.88,1.35C957.36,27.71,955.59,29.68,955.8,31.92L955.8,31.92z"/>
	</g>
</g>
<g>
	<g>
		<path class="st0" d="M487.98,29.96c1.6,24.05-1.56,48.1-3.89,72c-2.35,24.1-4.05,48.26-5.11,72.44
			c-0.6,13.67-0.99,27.34-1.18,41.02c-0.03,2.16,2.16,1.82,3.54,1.01c1.68-1,4.21-3.24,4.24-5.43c0.34-24.37,1.32-48.74,2.96-73.06
			c0.83-12.24,1.82-24.48,2.97-36.69c1.14-12,2.5-23.98,3.47-36c1.1-13.72,1.61-27.48,0.69-41.22c-0.05-0.77-1.09-0.97-1.64-0.92
			c-0.98,0.08-2.14,0.76-2.88,1.35C489.5,25.79,487.83,27.7,487.98,29.96L487.98,29.96z"/>
	</g>
</g>
<g>
	<g>
		<path class="st0" d="M627.85,52.02c2.96,22.34,4.32,44.87,4.04,67.4c-0.28,22.62-2.23,45.19-5.69,67.54
			c-1.95,12.57-4.19,25.11-5.31,37.79c-0.2,2.21,2.28,1.75,3.54,1.01c1.81-1.07,4.04-3.17,4.24-5.43
			c1.01-11.38,2.91-22.65,4.7-33.92c1.78-11.21,3.29-22.45,4.33-33.75c2.09-22.6,2.55-45.35,1.37-68.01
			c-0.67-12.89-1.83-25.75-3.52-38.55c-0.1-0.76-1.04-0.97-1.64-0.92c-0.98,0.08-2.14,0.76-2.88,1.35
			C629.47,47.78,627.56,49.82,627.85,52.02L627.85,52.02z"/>
	</g>
</g>
<g>
	<g>
		<path class="st0" d="M251.16,41.47c-1.22,23.54-6.24,46.64-11.82,69.48c-5.72,23.42-11.77,46.73-15.43,70.59
			c-2.14,13.93-3.95,27.92-5.88,41.89c-0.31,2.23,2.35,1.71,3.54,1.01c1.89-1.12,3.92-3.14,4.24-5.43
			c3.38-24.44,6.37-48.93,11.77-73.03c5.19-23.17,11.7-46.04,16.23-69.36c2.54-13.06,4.44-26.26,5.13-39.56
			c0.11-2.19-2.22-1.79-3.54-1.01C253.65,37.07,251.28,39.24,251.16,41.47L251.16,41.47z"/>
	</g>
</g>
<g>
	<g>
		<path class="st1" d="M36.38,373.5c-1.53,28.45-3.06,56.91-4.07,85.39c-1.01,28.46-1.49,56.94-0.93,85.41
			c0.32,16.02,0.97,32.03,2.02,48.01c0.05,0.77,1.09,0.97,1.64,0.92c0.98-0.08,2.14-0.76,2.88-1.35c1.67-1.34,3.34-3.25,3.19-5.51
			c-1.86-28.24-2.38-56.55-2.11-84.84c0.27-28.24,1.34-56.47,2.69-84.67c0.76-15.93,1.62-31.86,2.48-47.78
			c0.12-2.19-2.23-1.78-3.54-1.01C38.88,369.1,36.5,371.26,36.38,373.5L36.38,373.5z"/>
	</g>
</g>
<g>
	<g>
		<path class="st1" d="M63.3,379.09c-0.88,28.15-2.02,56.3-3.43,84.43c-1.41,28.13-3.08,56.25-5.01,84.35
			c-1.08,15.75-2.25,31.49-3.5,47.23c-0.17,2.2,2.26,1.76,3.54,1.01c1.79-1.06,4.06-3.18,4.24-5.43
			c2.23-28.08,4.19-56.18,5.89-84.29c1.7-28.11,3.14-56.25,4.31-84.39c0.66-15.77,1.23-31.55,1.73-47.33
			c0.07-2.17-2.19-1.8-3.54-1.01C65.83,374.67,63.37,376.88,63.3,379.09L63.3,379.09z"/>
	</g>
</g>
<g>
	<g>
		<path class="st1" d="M89.77,391.36c-2.26,24.9-4.07,49.84-5.4,74.8c-1.32,24.8-2.18,49.62-2.58,74.46
			c-0.22,14.07-0.3,28.14-0.23,42.22c0.01,2.15,2.14,1.84,3.54,1.01c1.65-0.98,4.25-3.25,4.24-5.43c-0.13-25,0.21-50,1.02-74.99
			c0.8-24.82,2.07-49.63,3.8-74.4c0.98-14.04,2.11-28.07,3.38-42.08c0.2-2.21-2.28-1.75-3.54-1.01
			C92.2,387,89.97,389.1,89.77,391.36L89.77,391.36z"/>
	</g>
</g>
<g>
	<g>
		<path class="st1" d="M111.36,388.06c-0.32,25.83-0.99,51.65-2.01,77.46c-1.02,25.73-2.4,51.44-4.13,77.13
			c-0.98,14.5-2.07,28.99-3.27,43.48c-0.18,2.2,2.27,1.76,3.54,1.01c1.8-1.06,4.05-3.18,4.24-5.43c2.13-25.74,3.92-51.51,5.34-77.3
			c1.42-25.71,2.49-51.43,3.2-77.17c0.4-14.53,0.69-29.06,0.87-43.59c0.03-2.16-2.16-1.82-3.54-1.01
			C113.92,383.62,111.38,385.87,111.36,388.06L111.36,388.06z"/>
	</g>
</g>
<g>
	<g>
		<path class="st1" d="M146.87,384.74c-4.04,26.77-7.61,53.6-10.69,80.49c-3.09,26.89-5.7,53.84-7.83,80.82
			c-1.19,15.14-2.24,30.29-3.13,45.45c-0.13,2.19,2.23,1.78,3.54,1.01c1.76-1.04,4.11-3.2,4.24-5.43
			c1.59-27.02,3.66-54.01,6.21-80.96c2.55-26.95,5.58-53.85,9.09-80.69c1.97-15.06,4.09-30.09,6.35-45.11
			c0.34-2.24-2.37-1.7-3.54-1.01C149.2,380.44,147.22,382.44,146.87,384.74L146.87,384.74z"/>
	</g>
</g>
<g>
	<g>
		<path class="st1" d="M182.45,370.57c-7.06,28.52-13.22,57.26-18.41,86.18c-5.13,28.62-9.33,57.4-12.58,86.29
			c-1.83,16.3-3.36,32.64-4.6,49c-0.17,2.2,2.26,1.77,3.54,1.01c1.79-1.06,4.07-3.18,4.24-5.43c2.18-28.99,5.31-57.91,9.38-86.7
			c4.06-28.71,9.06-57.28,14.98-85.66c3.31-15.84,6.89-31.62,10.78-47.33c0.17-0.68,0.45-1.62-0.14-2.21
			c-0.55-0.55-1.59-0.38-2.21-0.14C185.5,366.32,182.98,368.43,182.45,370.57L182.45,370.57z"/>
	</g>
</g>
<g>
	<g>
		<path class="st1" d="M215.57,385.29c-2.28,25.6-4.95,51.16-8.01,76.68c-3.07,25.52-6.53,50.98-10.38,76.39
			c-2.17,14.33-4.47,28.65-6.9,42.94c-0.38,2.24,2.4,1.68,3.54,1.01c1.94-1.15,3.85-3.13,4.24-5.43c4.29-25.34,8.2-50.74,11.71-76.2
			c3.51-25.46,6.63-50.97,9.35-76.53c1.54-14.42,2.94-28.84,4.23-43.28c0.2-2.21-2.28-1.75-3.54-1.01
			C218,380.92,215.77,383.03,215.57,385.29L215.57,385.29z"/>
	</g>
</g>
<g>
	<g>
		<path class="st1" d="M238.11,383.5c-3.12,25.88-5.51,51.85-7.16,77.87c-1.64,25.85-2.55,51.75-2.74,77.66
			c-0.1,14.68,0.03,29.37,0.39,44.05c0.05,2.13,2.11,1.86,3.54,1.01c1.1-0.65,2.13-1.52,2.89-2.56c0.57-0.78,1.37-1.87,1.35-2.88
			c-0.64-26.06-0.55-52.14,0.28-78.2c0.82-25.89,2.38-51.76,4.66-77.56c1.29-14.63,2.82-29.23,4.57-43.81
			c0.27-2.22-2.33-1.72-3.54-1.01C240.49,379.17,238.39,381.22,238.11,383.5L238.11,383.5z"/>
	</g>
</g>
<g>
	<g>
		<path class="st1" d="M266.13,388.19c0.4,11.91-2.8,23.47-4.73,35.12c-1.99,11.98-1.81,24.08-2,36.18
			c-0.2,12.3-1.21,24.55-2.22,36.81c-1.01,12.22-2.02,24.44-3.02,36.66c-1.14,13.87-2.29,27.74-3.43,41.61
			c-0.18,2.2,2.27,1.76,3.54,1.01c1.8-1.06,4.06-3.18,4.24-5.43c2.03-24.6,4.06-49.2,6.09-73.81c1.01-12.26,2.13-24.53,2.49-36.83
			c0.36-12.13-0.14-24.33,1.47-36.39c1.74-13.12,5.81-25.99,5.36-39.34c-0.07-2.12-2.09-1.86-3.54-1.01
			c-1.1,0.65-2.13,1.52-2.89,2.56C266.91,386.09,266.1,387.18,266.13,388.19L266.13,388.19z"/>
	</g>
</g>
<g>
	<g>
		<path class="st1" d="M429.03,384.21c-2.98,24.67-6.48,49.28-10.51,73.8c-4.02,24.44-8.57,48.79-13.64,73.04
			c-2.86,13.68-5.89,27.33-9.08,40.94c-0.53,2.26,2.49,1.63,3.54,1.01c2.05-1.21,3.69-3.1,4.24-5.43
			c5.67-24.19,10.83-48.51,15.46-72.93c4.61-24.34,8.7-48.77,12.26-73.28c2.01-13.83,3.85-27.69,5.52-41.57
			c0.27-2.22-2.33-1.72-3.54-1.01C431.41,379.88,429.3,381.93,429.03,384.21L429.03,384.21z"/>
	</g>
</g>
<g>
	<g>
		<path class="st1" d="M447.36,381.88c-4.23,26.32-8.46,52.65-11.62,79.12c-1.56,13.02-2.81,26.06-3.78,39.13
			c-0.95,12.71-1.77,25.43-3.18,38.1c-1.57,14.1-3.89,28.16-8.01,41.76c-0.2,0.65-0.43,1.64,0.14,2.21
			c0.55,0.55,1.59,0.38,2.21,0.14c2.05-0.78,4.35-2.84,5-5c7.5-24.81,9.36-50.72,11.24-76.42c1.93-26.48,4.98-52.8,8.85-79.07
			c2.19-14.82,4.56-29.6,6.94-44.39c0.36-2.24-2.39-1.69-3.54-1.01C449.67,377.59,447.73,379.58,447.36,381.88L447.36,381.88z"/>
	</g>
</g>
<g>
	<g>
		<path class="st1" d="M493.17,374.1c-7.33,25.66-11.89,52.03-14.58,78.56c-2.69,26.52-3.59,53.18-3.85,79.82
			c-0.14,14.92-0.08,29.84-0.02,44.76c0.01,2.15,2.14,1.84,3.54,1.01c1.65-0.98,4.25-3.25,4.24-5.43
			c-0.12-26.52-0.21-53.04,0.81-79.54c1.02-26.39,3.17-52.78,7.57-78.83c2.45-14.49,5.6-28.86,9.63-42.99
			c0.19-0.66,0.44-1.63-0.14-2.21c-0.55-0.55-1.59-0.38-2.21-0.14C496.15,369.87,493.79,371.94,493.17,374.1L493.17,374.1z"/>
	</g>
</g>
<g>
	<g>
		<path class="st1" d="M516.17,372.4c-7.24,25.24-12.08,51.11-15.31,77.15c-3.22,26-4.9,52.17-6.01,78.33
			c-0.63,14.76-1.07,29.53-1.52,44.29c-0.07,2.17,2.19,1.81,3.54,1.01c1.71-1.01,4.17-3.22,4.24-5.43
			c0.78-26.12,1.58-52.26,3.36-78.34c1.77-25.91,4.51-51.79,9.2-77.35c2.61-14.25,5.84-28.38,9.84-42.31
			c0.19-0.66,0.44-1.63-0.14-2.21c-0.55-0.55-1.59-0.38-2.21-0.14C519.14,368.17,516.79,370.24,516.17,372.4L516.17,372.4z"/>
	</g>
</g>
<g>
	<g>
		<path class="st1" d="M533.87,564.57c-1.02-25.15-1.17-50.34-0.45-75.5c0.72-25,2.31-49.97,4.76-74.86
			c1.39-14.08,3.05-28.14,4.99-42.15c0.31-2.23-2.35-1.71-3.54-1.01c-1.89,1.12-3.92,3.14-4.24,5.43
			c-3.44,24.94-6.03,49.99-7.73,75.11c-1.69,24.95-2.52,49.96-2.48,74.97c0.02,14.15,0.32,28.3,0.9,42.44
			c0.09,2.12,2.08,1.87,3.54,1.01c1.1-0.65,2.13-1.52,2.89-2.56C533.08,566.67,533.91,565.57,533.87,564.57L533.87,564.57z"/>
	</g>
</g>
<g>
	<g>
		<path class="st1" d="M574.23,364.8c0.33,27.4,0.57,54.8,0.73,82.21c0.16,27.32,0.23,54.64,0.21,81.96
			c-0.01,15.41-0.05,30.82-0.11,46.23c-0.01,2.15,2.15,1.83,3.54,1.01c1.67-0.99,4.23-3.24,4.24-5.43
			c0.11-27.4,0.14-54.81,0.08-82.21c-0.06-27.32-0.21-54.64-0.44-81.96c-0.13-15.41-0.29-30.82-0.47-46.22
			c-0.03-2.14-2.12-1.84-3.54-1.01C576.83,360.34,574.2,362.63,574.23,364.8L574.23,364.8z"/>
	</g>
</g>
<g>
	<g>
		<path class="st1" d="M609.99,369.38c-3.82,25.5-6.65,51.15-8.49,76.87c-1.82,25.56-2.66,51.18-2.52,76.8
			c0.08,14.45,0.48,28.9,1.19,43.34c0.04,0.74,0.1,1.38,0.92,1.64c0.8,0.24,1.97-0.25,2.62-0.63c1.1-0.65,2.13-1.52,2.89-2.56
			c0.56-0.77,1.4-1.88,1.35-2.88c-1.26-25.76-1.54-51.56-0.8-77.33c0.73-25.61,2.44-51.19,5.13-76.67
			c1.52-14.37,3.35-28.71,5.49-43.01c0.33-2.24-2.37-1.7-3.54-1.01C612.32,365.08,610.33,367.09,609.99,369.38L609.99,369.38z"/>
	</g>
</g>
<g>
	<g>
		<path class="st1" d="M636.66,372.46c-1.32,25.44-2.65,50.89-3.97,76.33c-1.31,25.28-2.63,50.55-3.94,75.83
			c-0.74,14.3-1.49,28.6-2.23,42.9c-0.11,2.19,2.22,1.79,3.54,1.01c1.75-1.03,4.13-3.2,4.24-5.43c1.32-25.44,2.65-50.89,3.97-76.33
			c1.31-25.28,2.63-50.55,3.94-75.83c0.74-14.3,1.49-28.6,2.23-42.9c0.11-2.19-2.22-1.79-3.54-1.01
			C639.15,368.06,636.78,370.23,636.66,372.46L636.66,372.46z"/>
	</g>
</g>
<g>
	<g>
		<path class="st2" d="M784.18,384.83c-1.64,12.43-3.27,24.86-4.45,37.34c-1.18,12.5-1.68,25-1.86,37.55
			c-0.36,25.19-1.75,50.3-3.82,75.41c-1.17,14.21-2.5,28.4-3.84,42.59c-0.21,2.21,2.29,1.75,3.54,1.01
			c1.82-1.08,4.03-3.17,4.24-5.43c2.36-25.08,4.71-50.17,6.17-75.32c0.73-12.57,1.22-25.14,1.41-37.73
			c0.19-12.55,0.44-25.06,1.49-37.57c1.19-14.13,3.04-28.2,4.89-42.26c0.29-2.23-2.34-1.71-3.54-1.01
			C786.54,380.51,784.49,382.55,784.18,384.83L784.18,384.83z"/>
	</g>
</g>
<g>
	<g>
		<path class="st2" d="M828.13,369.38c-2.22,27.99-4.11,56-5.68,84.04c-1.55,27.87-2.78,55.75-3.69,83.65
			c-0.51,15.77-0.92,31.55-1.22,47.33c-0.04,2.16,2.17,1.82,3.54,1.01c1.69-1,4.2-3.23,4.24-5.43c0.54-28.07,1.41-56.14,2.61-84.19
			c1.19-27.89,2.71-55.76,4.55-83.61c1.04-15.75,2.19-31.49,3.43-47.22c0.17-2.2-2.26-1.76-3.54-1.01
			C830.58,365.01,828.31,367.13,828.13,369.38L828.13,369.38z"/>
	</g>
</g>
<g>
	<g>
		<path class="st2" d="M875.22,374.6c-2.81,27.56-5.4,55.14-7.74,82.74c-2.33,27.44-4.42,54.89-6.28,82.36
			c-1.05,15.56-2.03,31.12-2.94,46.68c-0.13,2.19,2.23,1.78,3.54,1.01c1.76-1.04,4.11-3.2,4.24-5.43
			c1.61-27.65,3.45-55.29,5.53-82.91c2.07-27.46,4.37-54.9,6.9-82.31c1.44-15.53,2.95-31.04,4.53-46.55
			c0.23-2.21-2.3-1.74-3.54-1.01C877.63,370.25,875.45,372.33,875.22,374.6L875.22,374.6z"/>
	</g>
</g>
<g>
	<g>
		<path class="st2" d="M910.7,375.53c0.23,27.32,0.47,54.64,0.7,81.95c0.23,27.32,0.47,54.64,0.7,81.95
			c0.13,15.32,0.26,30.65,0.39,45.97c0.02,2.14,2.13,1.84,3.54,1.01c1.65-0.97,4.26-3.26,4.24-5.43
			c-0.23-27.32-0.47-54.64-0.7-81.95c-0.23-27.32-0.47-54.64-0.7-81.95c-0.13-15.32-0.26-30.65-0.39-45.97
			c-0.02-2.14-2.13-1.84-3.54-1.01C913.3,371.07,910.68,373.35,910.7,375.53L910.7,375.53z"/>
	</g>
</g>
<g>
	<g>
		<path class="st2" d="M958.57,382.32c2.47,25.6,2.53,51.36,1.7,77.05c-0.83,25.69-2.53,51.34-3.63,77.01
			c-0.62,14.48-1.04,28.96-1.02,43.45c0,2.15,2.14,1.83,3.54,1.01c1.66-0.98,4.24-3.25,4.24-5.43c-0.04-25.95,1.36-51.87,2.72-77.78
			c1.35-25.79,2.65-51.61,2.37-77.44c-0.16-14.62-0.82-29.25-2.22-43.8c-0.07-0.77-1.06-0.97-1.64-0.92
			c-0.98,0.08-2.14,0.76-2.88,1.35C960.13,378.11,958.36,380.09,958.57,382.32L958.57,382.32z"/>
	</g>
</g>
<g>
	<g>
		<path class="st1" d="M461.56,385.74c1.6,24.05-1.56,48.1-3.89,72c-2.35,24.1-4.05,48.26-5.11,72.44
			c-0.6,13.67-0.99,27.34-1.18,41.02c-0.03,2.16,2.16,1.82,3.54,1.01c1.68-1,4.21-3.24,4.24-5.43c0.34-24.37,1.32-48.74,2.96-73.06
			c0.83-12.24,1.82-24.48,2.97-36.69c1.14-12,2.5-23.98,3.47-36c1.1-13.72,1.61-27.48,0.69-41.22c-0.05-0.77-1.09-0.97-1.64-0.92
			c-0.98,0.08-2.14,0.76-2.88,1.35C463.08,381.57,461.41,383.48,461.56,385.74L461.56,385.74z"/>
	</g>
</g>
<g>
	<g>
		<path class="st1" d="M548.58,393.73c2.96,22.34,4.32,44.87,4.04,67.4c-0.28,22.62-2.23,45.19-5.69,67.54
			c-1.95,12.57-4.19,25.11-5.31,37.79c-0.2,2.21,2.28,1.75,3.54,1.01c1.81-1.07,4.04-3.17,4.24-5.43
			c1.01-11.38,2.91-22.65,4.7-33.92c1.78-11.21,3.29-22.45,4.33-33.75c2.09-22.6,2.55-45.35,1.37-68.01
			c-0.67-12.89-1.83-25.75-3.52-38.55c-0.1-0.76-1.04-0.97-1.64-0.92c-0.98,0.08-2.14,0.76-2.88,1.35
			C550.19,389.48,548.29,391.53,548.58,393.73L548.58,393.73z"/>
	</g>
</g>
<g>
	<g>
		<path class="st1" d="M198.8,396.12c-1.22,23.54-6.24,46.64-11.82,69.48c-5.72,23.42-11.77,46.73-15.43,70.59
			c-2.14,13.93-3.95,27.92-5.88,41.89c-0.31,2.23,2.35,1.71,3.54,1.01c1.89-1.12,3.92-3.14,4.24-5.43
			c3.38-24.44,6.37-48.93,11.77-73.03c5.19-23.17,11.7-46.04,16.23-69.36c2.54-13.06,4.44-26.26,5.13-39.56
			c0.11-2.19-2.22-1.79-3.54-1.01C201.29,391.72,198.91,393.89,198.8,396.12L198.8,396.12z"/>
	</g>
</g>
<g>
	<g>
		<path class="st0" d="M486.78,264.41c1.47,17.92,0.36,35.93-0.71,53.84c-0.13,2.19,2.23,1.78,3.54,1.01
			c1.76-1.04,4.11-3.2,4.24-5.43c1.11-18.43,2.14-36.9,0.63-55.34c-0.06-0.77-1.07-0.97-1.64-0.92c-0.98,0.08-2.14,0.76-2.88,1.35
			C488.32,260.22,486.59,262.17,486.78,264.41L486.78,264.41z"/>
	</g>
</g>
<g>
	<g>
		<path class="st0" d="M474.93,305.85c3.48,1.6,4.95,6.53,6.21,9.8c1.74,4.52,3.08,9.17,4.05,13.91c0.33,1.61,2.68,0.74,3.5,0.25
			c1.79-1.06,3.19-2.64,4.02-4.54c2.31-5.29,4.46-9.88,7.06-15.06c2.58-5.13,5.29-10.2,8.13-15.19c0.73-1.28,1.22-3.73-1.01-3.54
			c-2.21,0.18-4.41,2.44-5.43,4.24c-5.93,10.44-11.29,21.2-16.09,32.2c2.51-1.43,5.02-2.86,7.53-4.29
			c-1.03-5.04-2.49-9.99-4.39-14.77c-1.64-4.12-3.36-8.74-7.64-10.7c-0.71-0.33-2.06,0.32-2.62,0.63c-1.07,0.6-2.17,1.57-2.89,2.56
			C474.5,302.51,473.01,304.97,474.93,305.85L474.93,305.85z"/>
	</g>
</g>
<g>
	<g>
		<path class="st2" d="M753.85,605.87c3.52,6.27,10,10.34,16.75,12.4c8.39,2.56,17.4,2.15,26.06,1.89
			c9.25-0.28,18.51-0.56,27.76-0.85c8.97-0.27,18.09-0.93,27.02,0.31c8.45,1.18,16.77,4.18,22.82,10.4c1.07,1.1,3.35-0.31,4.2-0.99
			c1.52-1.22,2.85-2.81,3.23-4.76c0.05-0.28,0.21-0.79,0.47-1.5c0.27-0.74-0.24,0.38,0.14-0.31c0.1-0.18,0.71-1.21,0.39-0.71
			c-0.33,0.52,0.28-0.36,0.39-0.5c0.08-0.1,0.3-0.29,0.34-0.42c-0.01,0.03-0.69,0.72-0.28,0.33c0.26-0.25,0.52-0.51,0.77-0.76
			c0.39-0.4-0.29,0.27-0.32,0.28c0.16-0.04,0.43-0.35,0.56-0.46c0.29-0.22,0.59-0.43,0.88-0.65c-0.65,0.49-0.15,0.11,0.22-0.11
			c0.31-0.19,0.63-0.36,0.96-0.53c0.16-0.08,0.33-0.16,0.49-0.25c0.55-0.29-0.57,0.21,0.02,0c1.64-0.59,3.18-1.15,4.88-1.46
			c3.74-0.68,7.57-0.73,11.36-0.72c4.11,0.01,8.21,0.03,12.32,0.04c8.36,0.03,16.73,0.06,25.09,0.09
			c7.97,0.03,16.25,0.64,24.11-0.93c8.87-1.77,17.13-6.72,21.68-14.73c0.72-1.28,1.22-3.73-1.01-3.54
			c-2.21,0.18-4.41,2.44-5.43,4.24c-0.19,0.33-0.38,0.66-0.59,0.98c0.44-0.7,0.04-0.08-0.2,0.22c-0.12,0.15-0.24,0.29-0.36,0.44
			c-0.36,0.47,0.23-0.3,0.26-0.29c-0.04-0.02-0.97,1.01-1.07,1.07c0.01-0.01,0.75-0.62,0.29-0.26c-0.15,0.12-0.29,0.24-0.44,0.36
			c-0.3,0.24-0.61,0.46-0.92,0.69c-0.73,0.53,0.52-0.29-0.27,0.17c-0.39,0.23-0.77,0.46-1.17,0.67c-0.16,0.09-1.01,0.52-0.72,0.38
			c0.29-0.14-0.58,0.25-0.75,0.32c-0.83,0.34-1.68,0.65-2.54,0.91c-1.68,0.51-3.41,0.82-5.15,1.05c-4.02,0.52-8.08,0.52-12.12,0.5
			c-4.22-0.01-8.44-0.03-12.66-0.05c-8.45-0.03-16.89-0.06-25.34-0.09c-8.09-0.03-16.52-0.67-24.36,1.76
			c-8.28,2.57-15.97,9.48-17.69,18.19c2.48-1.92,4.95-3.83,7.43-5.75c-12.18-12.52-30.89-12.08-47.03-11.59
			c-9.25,0.28-18.51,0.56-27.76,0.85c-8.74,0.27-17.72,1.04-26.35-0.72c-7.8-1.59-15.27-5.56-19.27-12.69
			c-0.36-0.64-1.78-0.29-2.21-0.14c-1.08,0.37-2.21,1.2-2.99,2.01C754.47,601.98,752.82,604.04,753.85,605.87L753.85,605.87z"/>
	</g>
</g>
<g>
	<g>
		<path class="st2" d="M856.4,649.47c10.39-0.12,20.77-0.24,31.16-0.36c0.95-0.01,2.18-0.81,2.88-1.35
			c0.96-0.74,1.99-1.81,2.56-2.89c0.75-1.42,1.25-3.57-1.01-3.54c-10.39,0.12-20.77,0.24-31.16,0.36c-0.95,0.01-2.18,0.81-2.88,1.35
			c-0.96,0.74-1.99,1.81-2.56,2.89C854.65,647.35,854.15,649.5,856.4,649.47L856.4,649.47z"/>
	</g>
</g>
<g>
	<g>
		<path class="st2" d="M861.47,642.68c-3.21,1.5-5.84,4.14-6.58,7.68c-0.41,1.97-0.2,4.1-0.2,6.1c-0.01,3.62-0.35,8.3,2.84,10.82
			c1.6,1.26,4.13-0.85,5.2-1.87c0.92-0.89-0.62,0.43,0.02-0.04c0.21-0.15,0.43-0.31,0.62-0.48c0.55-0.49-0.93,0.52,0.12-0.09
			c0.23-0.13,0.45-0.27,0.68-0.4c0.23-0.13,0.46-0.25,0.69-0.37c-0.61,0.31-0.02,0.01,0.1-0.04c0.61-0.24,1.22-0.48,1.86-0.67
			c0.88-0.27,1.83-0.47,3-0.62c1.29-0.17,2.59-0.23,3.89-0.2c2.79,0.05,5.58,0.57,8.29,1.18c2.52,0.56,5.13,1.1,7.56,1.98
			c1.7,0.62,3.56,1.72,3.54,3.72c-0.01,0.46-0.1,0.81-0.23,1.18c-0.08,0.23-0.17,0.46-0.26,0.69c0.29-0.74,0-0.01-0.1,0.18
			c-0.07,0.13-0.45,0.83-0.14,0.28c0.36-0.64-0.27,0.36-0.3,0.39c-0.19,0.27-0.35,0.76,0.17-0.15c-0.12,0.21-0.59,0.73-0.78,0.79
			c0.08-0.02,0.94-0.76,0.16-0.14c-0.19,0.15-0.39,0.3-0.59,0.46c-0.67,0.54-0.05,0.06,0.09-0.04c-0.26,0.17-0.53,0.33-0.79,0.49
			c-1.15,0.67-1.62,0.84-3.09,1.33c-2.37,0.79-4.83,1.16-7.37,1.5c-3.25,0.43-6.51,0.72-9.78,0.86c-2.1,0.09-4.63,0.43-5.92-1.62
			c-0.39-0.63-1.75-0.3-2.21-0.14c-1.08,0.37-2.21,1.2-2.99,2.01c-1.19,1.24-2.98,3.43-1.87,5.2c1.46,2.33,4.64,2.45,7.09,2.39
			c3.52-0.08,7.04-0.38,10.52-0.82c6.76-0.85,13.51-2.44,18.8-7.01c2.83-2.44,5.26-5.4,6.59-8.94c1.11-2.95,1.29-6.57-1.46-8.66
			c-2.26-1.72-5.19-2.28-7.88-2.95c-3.35-0.84-6.74-1.57-10.19-1.81c-7.91-0.56-15.37,1.68-21.16,7.25c1.73-0.62,3.46-1.25,5.2-1.87
			c-1.87-1.47-2.11-3.9-2.13-6.08c-0.01-1.6,0-3.21,0.01-4.81c0-0.76-0.03-1.52,0.03-2.27c0.01-0.1,0.12-0.77,0.1-0.79
			c0.55,0.49-4.46,4.41-2.07,2.78c-0.66,0.38-1.32,0.76-1.99,1.13c0.09-0.04,0.18-0.08,0.27-0.13c2.13-0.99,4.21-2.7,5-5
			C864.41,643.31,863.4,641.78,861.47,642.68L861.47,642.68z"/>
	</g>
</g>
<g>
	<g>
		<path class="st1" d="M19.13,611.9c31.9,19.2,71.37,15.52,107.03,14.72c41.93-0.95,83.86-2.18,125.8-2.84
			c18.09-0.28,38.16,0.46,52.59,12.83c2.52,2.16,7.3-3.51,7.43-5.75c0.54-9.4,8.54-13.88,16.89-15.79
			c10.54-2.41,21.88-2.4,32.63-2.71c23.4-0.66,46.79,0.43,70.15,1.71c43.41,2.37,87.2,5.28,130.41-1.22
			c23.33-3.51,46.11-9.85,67.46-19.94c1.79-0.84,4.19-3.34,4.24-5.43c0.05-2.3-2.15-1.66-3.54-1.01
			c-39.69,18.75-84.49,22.91-127.85,22.56c-47.91-0.38-95.7-6.33-143.65-4.2c-12.05,0.54-25.03,0.69-36.1,6.04
			c-9.3,4.5-17.81,13.68-18.43,24.4c2.48-1.92,4.95-3.83,7.43-5.75c-12.57-10.78-29.25-13.16-45.26-13.53
			c-19.85-0.46-39.8,0.65-59.64,1.1c-21.15,0.48-42.29,0.96-63.44,1.44c-19.55,0.44-39.19,1.43-58.75,0.75
			c-20.12-0.7-40.82-3.93-58.32-14.46C23.15,602.99,16.71,610.44,19.13,611.9L19.13,611.9z"/>
	</g>
</g>
<g>
	<g>
		<path class="st1" d="M163.56,673.59c-0.04-2.09,0.22-3.74,0.91-5.48c0.04-0.09,0.36-0.85,0.16-0.42c-0.18,0.39,0.1-0.2,0.12-0.22
			c0.25-0.46,0.51-0.92,0.8-1.36c-0.62,0.93,0.33-0.53,0.5-0.57c0.01,0-0.68,0.69-0.22,0.27c0.23-0.21,0.43-0.53,0.7-0.69
			c-1.24,0.75,0.88-0.53-0.06,0.05c0.18-0.11,0.36-0.22,0.54-0.31c0.59-0.31-0.47,0.11,0.16-0.05c0.55-0.14,1.16-0.2,1.91-0.02
			c1.68,0.41,3,1.57,4,2.95c2.4,3.3,1.63,7.32,0.1,10.69c0.23-0.51-0.34,0.66-0.41,0.79c-0.27,0.52-0.56,1.03-0.85,1.54
			c-0.59,1.02-1.22,2.03-1.85,3.02c-0.28,0.45-0.57,0.89-0.86,1.33c-0.17,0.25-0.33,0.51-0.5,0.76c0.11-0.17,0.45-0.66-0.08,0.12
			c-0.68,1-1.37,1.99-2.07,2.97c-1.5,2.08-3.06,4.12-4.68,6.11c-0.86,1.05-1.73,2.1-2.62,3.12c-0.2,0.23-0.4,0.46-0.6,0.68
			c0.33-0.38,0.29-0.33-0.02,0.02c-0.51,0.56-1.01,1.12-1.53,1.67c1.4,0.77,2.8,1.55,4.2,2.32c0.42-0.58,0.49-0.59-0.02-0.05
			c0.82-0.87-0.85,0.81,0-0.03c0.73-0.72-0.8,0.4,0.11-0.08c0.21-0.11,1.08-0.4,0.24-0.14c0.32-0.1,0.64-0.23,0.96-0.34
			c0.66-0.22-0.32-0.01,0.43-0.09c0.53-0.06,1.24-0.16,1.65-0.14c2.89,0.08,5.17,2.21,7.63,3.67c6.5,3.85,13.82,1.41,19.11-3.34
			c1.02-0.91,3.25-3.82,1.87-5.2c-1.44-1.44-4.25,1.03-5.2,1.87c1-0.9,0.13-0.16-0.13,0.03c0.92-0.67,0.02-0.06-0.22,0.08
			c-0.8,0.46,0.47-0.1-0.34,0.14c-0.35,0.1-0.68,0.24-1.03,0.34c0.55-0.15-0.42,0.07-0.53,0.09c-0.36,0.06-0.72,0.1-1.08,0.12
			c-0.66,0.04-1.14,0.04-1.78-0.05c-3.3-0.48-5.52-2.67-8.35-4.2c-6.51-3.53-14.42,0.49-18.41,6c-0.69,0.95-2.31,3.46-0.71,4.36
			c1.55,0.86,3.96-1,4.91-2.03c4.04-4.37,7.86-8.95,11.33-13.79c3.43-4.79,7-9.82,9.18-15.32c1.96-4.93,2.31-10.77-1.48-14.94
			c-1.44-1.59-3.48-2.75-5.63-2.92c-3.36-0.27-6.52,1.42-9.05,3.49c-5.21,4.26-9.15,10.74-9.01,17.63c0.04,2.13,2.11,1.85,3.54,1.01
			c1.1-0.65,2.13-1.52,2.89-2.56C162.79,675.68,163.58,674.61,163.56,673.59L163.56,673.59z"/>
	</g>
</g>
<g>
	<g>
		<path class="st1" d="M316.78,839.65c0.04-0.08,0.58-1.2,0.17-0.4c0.14-0.28,0.28-0.56,0.43-0.84c0.33-0.61,0.69-1.2,1.05-1.8
			c0.11-0.19,0.52-0.72-0.05,0.07c0.22-0.31,0.44-0.62,0.66-0.92c0.15-0.2,0.3-0.4,0.46-0.6c0.18-0.22,1.14-1.6,0.34-0.44
			c0.35-0.5,0.88-0.94,1.31-1.36c0.18-0.18,0.37-0.35,0.55-0.52c0.92-0.9-0.87,0.68,0.14-0.12c0.5-0.39,0.98-0.79,1.49-1.16
			c0.01-0.01,1.03-0.72,0.42-0.31c-0.53,0.36,0.66-0.41,0.77-0.47c0.54-0.32,1.09-0.63,1.65-0.91c0.08-0.04,1.21-0.55,0.39-0.19
			c0.23-0.1,0.46-0.2,0.7-0.3c0.69-0.28,1.76-0.94,2.36,0.07c0.4,0.68-0.03,2.06-0.21,2.82c-0.33,1.37-0.85,2.92-1.4,4.3
			c-1,2.51-2.26,4.63-3.88,6.69c-0.78,0.99-1.61,1.95-2.44,2.9c-0.16,0.18-1.02,1.16-0.13,0.15c-0.38,0.43-0.76,0.86-1.13,1.29
			c-0.5,0.57-1.01,1.15-1.5,1.73c-1.89,2.23-3.72,4.61-5.02,7.24c-0.67,1.35-1.26,2.7-1.64,4.17c-0.36,1.4-0.93,3.33-0.43,4.77
			c0.69,1.96,2.89,1.54,4.47,1.24c1.86-0.36,3.74-0.63,5.63-0.81c3.69-0.35,7.4-0.34,11.09,0.04c2.16,0.23,4.3-1.53,5.51-3.19
			c0.51-0.7,2.6-4.28,0.43-4.51c-3.71-0.39-7.45-0.5-11.18-0.24c-1.74,0.12-3.47,0.32-5.18,0.6c-0.94,0.15-1.86,0.36-2.8,0.52
			c-0.11,0.02-0.67,0.02-0.56,0.1c0.08,0.05,0.25-0.06,0.24,0.12c0.03-0.37,0.07-0.73,0.13-1.1c0,0,0.25-1.15,0.09-0.52
			c0.15-0.58,0.38-1.13,0.58-1.7c0.38-1.08-0.4,0.68,0.14-0.33c0.17-0.32,0.34-0.64,0.52-0.95c0.12-0.21,0.25-0.42,0.38-0.63
			c0.28-0.44,0.26-0.41-0.07,0.09c0.14-0.2,0.28-0.41,0.43-0.61c0.81-1.12,1.69-2.19,2.59-3.24c0.41-0.48,0.83-0.97,1.26-1.44
			c-1.06,1.18,0.41-0.47,0.76-0.86c0.34-0.38,0.67-0.77,1.01-1.15c4.69-5.42,8.16-11.62,9.81-18.63c0.63-2.68,0.96-6.67-2.73-7.08
			c-3.23-0.36-6.82,1.71-9.47,3.34c-6.85,4.21-12.27,10.39-15.46,17.77c-0.26,0.6-0.39,1.68,0.14,2.21
			c0.55,0.55,1.59,0.38,2.21,0.14C314.03,843.79,315.83,841.83,316.78,839.65L316.78,839.65z"/>
	</g>
</g>
<g>
	<g>
		<path class="st1" d="M370.56,835.98c-5.13,3.35-9.93,7.05-14.5,11.13c-0.81,0.72-1.66,1.95-2.01,2.99
			c-0.19,0.56-0.45,1.72,0.14,2.21c1.59,1.32,4.12-0.91,5.2-1.87c0.12-0.1,0.23-0.21,0.35-0.31c0.51-0.46-0.43,0.38-0.48,0.42
			c0.24-0.2,0.47-0.41,0.7-0.61c0.5-0.43,1-0.85,1.5-1.27c0.98-0.81,1.98-1.61,2.99-2.38c0.98-0.75,1.97-1.49,2.98-2.2
			c0.53-0.38,1.07-0.76,1.62-1.13c0.18-0.13,1.08-0.73,0.36-0.24c-0.67,0.45-0.17,0.12-0.02,0.02c0.16-0.11,0.32-0.21,0.48-0.32
			c1.1-0.72,2.08-1.5,2.89-2.56c0.55-0.72,1.32-1.91,1.35-2.88c0.02-0.68-0.12-1.46-0.92-1.64
			C372.31,835.16,371.27,835.52,370.56,835.98L370.56,835.98z"/>
	</g>
</g>
<g>
	<g>
		<path class="st1" d="M354.15,840.85c5.28,3.14,10.32,6.66,15.07,10.55c1.55,1.27,4.14-0.78,5.2-1.87
			c0.81-0.85,1.66-1.85,2.01-2.99c0.2-0.64,0.49-1.69-0.14-2.21c-4.76-3.89-9.79-7.41-15.07-10.55c-0.76-0.45-1.36-0.43-2.21-0.14
			c-1.08,0.37-2.21,1.2-2.99,2.01c-0.81,0.85-1.66,1.85-2.01,2.99C353.84,839.2,353.48,840.45,354.15,840.85L354.15,840.85z"/>
	</g>
</g>
<g>
	<g>
		<path class="st1" d="M400.51,846.74c3.95-2.94,7.9-5.88,11.91-8.74c1.94-1.38,3.89-2.75,5.86-4.09c0.26-0.18,0.53-0.36,0.79-0.53
			c-0.35,0.24-0.29,0.2,0.18-0.12c0.53-0.35,1.06-0.7,1.59-1.05c1.06-0.69,2.14-1.38,3.21-2.05c-1.11-0.63-2.22-1.26-3.33-1.89
			c-3.14,10.96-5.65,22.1-7.47,33.35c-0.09,0.57,0.2,1.57,0.92,1.64c2.69,0.26,5.01-1.12,6.86-3c0.96-0.98,3.3-3.78,1.87-5.2
			c-1.4-1.4-4.31,0.97-5.2,1.87c0.79-1.4,1.59-1.86,2.4-1.38c0.31,0.55,0.62,1.09,0.92,1.64c1.73-10.66,4.07-21.19,7.04-31.57
			c0.25-0.87,0.46-1.82-0.42-2.37c-0.85-0.53-2.14,0-2.9,0.47c-8.83,5.52-17.21,11.71-25.56,17.93c-1.41,1.05-3.79,3.53-3.19,5.51
			C396.62,849.22,399.6,847.42,400.51,846.74L400.51,846.74z"/>
	</g>
</g>
<g>
	<g>
		<path class="st1" d="M441.64,835.89c-6.59,1.78-12.2,7.2-14.94,13.36c-0.6,1.36-1.15,2.85-1.13,4.35c0.03,1.6,0.84,2.84,2.12,3.74
			c2.48,1.75,5.43,2.61,8.43,2.83c3.43,0.25,6.9,0.09,10-1.57c3.57-1.91,6.31-5.29,7.72-9.06c2.03-5.45,2.53-13.27-1.7-17.83
			c-6.39-6.9-16.66-0.08-18.43,7.49c-0.53,2.26,2.49,1.63,3.54,1.01c2.05-1.21,3.69-3.1,4.24-5.43c-0.06,0.26-0.14,0.4-0.24,0.64
			c0.31-0.72-0.05,0.06-0.15,0.19c-0.28,0.37-0.61,0.66-0.96,0.95c0.19-0.16,0.73-0.49-0.19,0.13c-0.11,0.07-0.81,0.33-0.07,0.04
			c0.13-0.05,0.63-0.13,0.07-0.04c0.41-0.07,0.85-0.09,1.16-0.06c1.88,0.22,3.44,1.38,4.55,2.86c1.18,1.58,1.73,3.71,1.83,5.67
			c0.06,1.05-0.04,2.12-0.16,3.16c-0.06,0.5-0.13,0.99-0.21,1.49c-0.04,0.23-0.08,0.47-0.13,0.7c-0.03,0.17-0.19,0.79-0.06,0.33
			c-0.12,0.46-0.26,0.92-0.43,1.37c-0.08,0.22-0.17,0.44-0.27,0.66c0.07-0.16,0.38-0.69-0.01-0.03c-0.12,0.21-0.49,0.75,0.11-0.14
			c-0.18,0.27-0.63,0.62,0.21-0.21c0.1-0.1,0.95-0.7,0.22-0.2c0.13-0.09,0.27-0.18,0.4-0.28c-0.38,0.21-0.45,0.24-0.19,0.1
			c0.59-0.22-0.97,0.24-0.43,0.12c-0.5,0.11-1.02,0.17-1.53,0.21c-0.97,0.08-1.97,0.11-2.94,0.05c-2.11-0.12-4.29-0.6-6.19-1.54
			c-0.73-0.36-1.46-0.84-2.02-1.43c-0.23-0.24-0.39-0.42-0.48-0.71c-0.1-0.31,0-0.42,0.17-0.92c0.08-0.22,0.16-0.43,0.24-0.64
			c0.37-1-0.25,0.41,0.04-0.12c0.23-0.41,0.43-1,0.77-1.34c-0.66,0.67-0.28,0.4-0.09,0.16c0.18-0.23,0.51-0.55,0.64-0.81
			c-0.06,0.12-0.82,0.85-0.19,0.24c0.16-0.16,0.33-0.32,0.49-0.48c0.66-0.65-0.12,0.17-0.22,0.2c0.2-0.06,0.65-0.5,0.82-0.63
			c0.39-0.29,0.18-0.38-0.15,0.1c0.13-0.19,0.55-0.33,0.74-0.43c0.11-0.06,0.76-0.4,0.28-0.16c-0.51,0.25,0.45-0.18,0.46-0.18
			c0.53-0.21,1.08-0.38,1.64-0.53c2.14-0.58,4.29-2.95,5-5c0.23-0.68,0.44-1.63-0.14-2.21C443.26,835.44,442.32,835.7,441.64,835.89
			L441.64,835.89z"/>
	</g>
</g>
<g>
	<g>
		<path class="st3" d="M493.29,844.75c7.36-0.98,14.78-1.35,22.2-1.12c0.92,0.03,2.22-0.84,2.88-1.35c0.96-0.74,1.99-1.81,2.56-2.89
			c0.79-1.5,1.22-3.47-1.01-3.54c-7.42-0.23-14.84,0.15-22.2,1.12c-2.22,0.3-4.42,2.31-5.43,4.24
			C491.65,842.42,490.97,845.06,493.29,844.75L493.29,844.75z"/>
	</g>
</g>
<g>
	<g>
		<path class="st3" d="M503.95,833.5c-0.75,6.11-0.86,12.26-0.44,18.4c0.05,0.77,1.08,0.97,1.64,0.92c0.98-0.08,2.14-0.76,2.88-1.35
			c1.67-1.34,3.34-3.25,3.19-5.51c-0.37-5.41-0.16-11.32,0.52-16.89c0.27-2.22-2.33-1.72-3.54-1.01
			C506.33,829.17,504.23,831.22,503.95,833.5L503.95,833.5z"/>
	</g>
</g>
<g>
	<g>
		<path class="st2" d="M541.55,822.05c6.14,0.42,12.28,0.29,18.38-0.53c2.22-0.3,4.42-2.31,5.43-4.24c0.4-0.76,0.9-1.74,0.63-2.62
			c-0.22-0.72-0.92-1.02-1.64-0.92c-5.56,0.74-11.47,0.98-16.87,0.61c-2.19-0.15-4.27,1.49-5.51,3.19
			c-0.59,0.81-1.32,1.84-1.35,2.88C540.61,821.02,540.74,822,541.55,822.05L541.55,822.05z"/>
	</g>
</g>
<g>
	<g>
		<path class="st2" d="M544.2,818.57c-3.11,3.86-3.29,8.61-3.81,13.31c-0.13,1.15-0.26,2.31-0.38,3.46
			c-0.13,1.16-0.48,2.75,0.37,3.74c1.32,1.52,4.54,0.73,6.29,0.63c2.31-0.12,4.62-0.28,6.93-0.37c1.08-0.04,2.58,0.07,2.53,1.48
			c-0.01,0.18-0.04,0.37-0.08,0.54c-0.1,0.58,0.14-0.4-0.05,0.15c-0.09,0.26-0.6,1.18-0.16,0.48c-0.09,0.14-0.18,0.31-0.26,0.46
			c-0.25,0.5,0.17-0.31,0.19-0.28c-0.03-0.04-0.35,0.54-0.43,0.56c0.2-0.04,0.65-0.79,0.16-0.21c-0.56,0.66,0.72-0.54-0.21,0.2
			c-0.34,0.27-1.12,0.73-0.33,0.27c-0.37,0.21-0.73,0.44-1.11,0.65c-0.16,0.09-0.33,0.17-0.49,0.25c0.7-0.38-0.03,0.01-0.19,0.08
			c-4.5,1.88-9.49,2.15-14.1,3.7c-2.15,0.72-4.26,2.86-5,5c-0.66,1.91,0.44,2.99,2.35,2.35c4.33-1.45,8.95-1.8,13.25-3.37
			c4.66-1.7,8.94-4.8,11.71-8.95c1.96-2.93,4.77-9.85-0.62-11c-2.09-0.45-4.44-0.05-6.55,0.06c-1.21,0.07-2.42,0.13-3.62,0.2
			c-0.56,0.03-1.13,0.06-1.69,0.09c-0.36,0.02-1.25,0.23-1.51,0.02c0.47,0.38,0.31-0.58,0.35-0.91c0.07-0.66,0.15-1.32,0.22-1.98
			c0.15-1.4,0.31-2.8,0.46-4.21c0.14-1.23,0.24-2.47,0.45-3.69c0.1-0.57,0.1-0.64,0.24-1.02c-0.02,0.06,0.26-0.73,0.27-0.72
			c0.11,0.04-0.86,1.27-0.12,0.35c0.77-0.95,2.44-3.91,0.43-4.51C547.71,814.78,545.26,817.26,544.2,818.57L544.2,818.57z"/>
	</g>
</g>
<g>
	<g>
		<path class="st3" d="M601.24,838.89c8.6-0.12,17.19-0.14,25.79-0.06c0.93,0.01,2.2-0.83,2.88-1.35c0.96-0.74,1.99-1.81,2.56-2.89
			c0.77-1.46,1.23-3.52-1.01-3.54c-8.6-0.09-17.19-0.07-25.79,0.06c-2.15,0.03-4.51,2.48-5.43,4.24
			C599.49,836.76,598.98,838.92,601.24,838.89L601.24,838.89z"/>
	</g>
</g>
<g>
	<g>
		<path class="st3" d="M601.76,850.94c7.63-0.81,15.29-1.28,22.97-1.42c0.96-0.02,2.17-0.81,2.88-1.35
			c0.96-0.74,1.99-1.81,2.56-2.89c0.74-1.41,1.25-3.58-1.01-3.54c-7.67,0.14-15.33,0.61-22.97,1.42c-2.21,0.23-4.44,2.35-5.43,4.24
			C600.1,848.65,599.45,851.18,601.76,850.94L601.76,850.94z"/>
	</g>
</g>
<g>
	<g>
		<path class="st3" d="M667.46,830.08c0.09-0.22,0.19-0.45,0.29-0.67c-0.03,0.07-0.3,0.56-0.06,0.16c0.22-0.36,0.4-0.75,0.61-1.12
			c0.12-0.21,0.26-0.41,0.38-0.62c-0.02,0.04-0.49,0.68-0.17,0.26c0.15-0.19,0.99-1.06,1-1.3c0,0.02-0.68,0.73-0.28,0.31
			c0.17-0.18,0.33-0.36,0.5-0.53c0.24-0.25,0.77-0.59,0.92-0.88c-0.01,0.03-0.76,0.63-0.31,0.28c0.19-0.15,0.38-0.31,0.57-0.46
			c0.14-0.11,0.29-0.22,0.44-0.33c0.11-0.08,0.97-0.64,0.39-0.28c-0.51,0.31,0.02-0.01,0.11-0.05c0.21-0.12,0.42-0.25,0.63-0.37
			c0.21-0.12,0.43-0.23,0.64-0.35c0.05-0.03,0.59-0.31,0.17-0.09c-0.42,0.21,0.12-0.05,0.17-0.08c0.22-0.09,0.45-0.19,0.67-0.28
			c0.45-0.18,0.91-0.34,1.37-0.48c0.71-0.22,0.92-0.29,1.94-0.44c0.23-0.03,0.45-0.06,0.68-0.09c-0.08-0.02-0.15-0.05-0.23-0.07
			c-0.29-0.13-0.3-0.09-0.04,0.12c-0.08,0.04-0.1-0.17-0.1-0.16c-0.07-0.09-0.09,0.56,0.06-0.05c-0.22,0.88-0.65,1.77-1,2.61
			c-0.19,0.45-0.38,0.89-0.58,1.33c-0.2,0.44-0.02,0.05,0.02-0.03c-0.15,0.31-0.3,0.62-0.46,0.93c-0.9,1.79-1.91,3.53-3.02,5.2
			c0.54-0.81-0.39,0.54-0.5,0.7c-0.24,0.34-0.49,0.67-0.74,1c-0.66,0.87-1.32,1.81-2.09,2.58c0.71-0.72-0.1,0.1-0.37,0.39
			c-0.33,0.35-0.66,0.7-1,1.05c-0.73,0.74-1.49,1.44-2.25,2.15c-0.57,0.53,0.7-0.6,0.14-0.12c-0.24,0.21-0.48,0.41-0.71,0.62
			c-0.62,0.54-1.24,1.08-1.85,1.64c-0.75,0.68-1.47,1.38-2.14,2.13c-1.93,2.15-3.74,4.57-4.47,7.42c-0.41,1.59,0,2.88,1.91,2.46
			c2.07-0.46,3.97-2.35,4.99-4.13c-0.35,0.61-0.89,1.17-1.45,1.61c-0.23,0.2-0.48,0.36-0.76,0.48c-0.32,0.14-0.3,0.14,0.04,0.01
			c-0.38,0.08-0.44,0.09-0.19,0.05c0.14-0.03,0.29-0.04,0.43-0.05c0.73-0.07-0.32-0.11,0.4,0c1.14,0.19,1.72,0.65,2.37,1.73
			c0.75,1.26,1.26,2.56,2.4,3.55c1.07,0.94,2.45,1.63,3.82,2.02c6.98,1.97,13.62-2.71,18.88-6.69c1.4-1.06,3.79-3.52,3.19-5.51
			c-0.62-2.05-3.61-0.26-4.51,0.43c-0.73,0.55-1.45,1.1-2.19,1.63c-0.12,0.08-1.14,0.79-0.7,0.5c0.41-0.27-0.78,0.48-0.91,0.56
			c-0.36,0.21-0.73,0.41-1.09,0.61c-0.72,0.41,0.31-0.08-0.52,0.25c-0.39,0.15-0.77,0.31-1.16,0.44c0.02-0.01-1.1,0.3-0.65,0.2
			c-2.47,0.53-5.36,0.15-7.31-1.73c-1.11-1.07-1.52-2.49-2.4-3.72c-0.81-1.12-2.18-1.84-3.54-2c-4.38-0.53-8.5,2.72-10.56,6.34
			c2.3-0.56,4.6-1.12,6.89-1.67c0.12-0.48,0.27-0.94,0.46-1.39c-0.3,0.73-0.02,0.14,0.03,0c0.4-1.01-0.39,0.44,0.02-0.05
			c0.16-0.19,0.31-0.38,0.45-0.58c0.42-0.57-0.66,0.66-0.14,0.16c0.4-0.4,0.79-0.81,1.2-1.2c0.18-0.17,0.37-0.34,0.56-0.51
			c0.76-0.7-0.07,0.12-0.15,0.12c0.32,0,1.45-1.27,1.64-1.43c0.99-0.87,1.96-1.75,2.89-2.68c3.73-3.73,6.99-7.95,9.64-12.5
			c1.29-2.22,2.42-4.55,3.42-6.91c0.75-1.78,2.4-5.07,0.76-6.81c-1.56-1.65-5.16-0.31-6.95,0.26c-2.32,0.75-4.53,1.88-6.55,3.23
			c-5.01,3.35-8.99,8.01-11.31,13.58c-0.25,0.61-0.4,1.67,0.14,2.21c0.55,0.55,1.59,0.38,2.21,0.14
			C664.69,834.23,666.55,832.26,667.46,830.08L667.46,830.08z"/>
	</g>
</g>
<g>
	<g>
		<path class="st3" d="M694.94,822.4c6.04-0.26,12.09-0.31,18.13-0.16c0.92,0.02,2.21-0.84,2.88-1.35c0.96-0.74,1.99-1.81,2.56-2.89
			c0.4-0.76,0.9-1.74,0.63-2.62c-0.24-0.78-0.9-0.91-1.64-0.92c-6.04-0.15-12.09-0.1-18.13,0.16c-0.97,0.04-2.15,0.79-2.88,1.35
			c-0.96,0.74-1.99,1.81-2.56,2.89C693.22,820.23,692.67,822.5,694.94,822.4L694.94,822.4z"/>
	</g>
</g>
<g>
	<g>
		<path class="st3" d="M693.93,821.29c-0.43,2.06-0.69,4.15-0.74,6.26c-0.03,1.11,0.01,2.22,0.08,3.33
			c0.06,0.93,0.01,2.09,0.68,2.84c1.28,1.4,4.19,0.56,5.81,0.4c1.89-0.19,3.81-0.37,5.7-0.04c3.31,0.59,5.91,2.48,6.59,5.9
			c0.14,0.71,0.19,1.37,0.14,2.1c-0.02,0.38-0.07,0.76-0.12,1.13c-0.04,0.25-0.08,0.5-0.14,0.75c0.09-0.35-0.04,0.12-0.08,0.21
			c-0.12,0.36-0.25,0.72-0.38,1.07c-0.29,0.75-0.1,0.22-0.02,0.06c-0.09,0.17-0.18,0.34-0.27,0.5c-0.09,0.17-0.2,0.33-0.29,0.49
			c0.03-0.05,0.48-0.64,0.15-0.22c-0.16,0.2-0.32,0.4-0.46,0.61c-0.4,0.57,0.64-0.61,0.13-0.14c-0.14,0.13-0.27,0.27-0.4,0.41
			c-0.5,0.5,0.05,0.11,0.14-0.13c-0.05,0.12-0.55,0.41-0.61,0.46c0.35-0.27,0.43-0.26,0.01-0.03c-0.18,0.1-0.36,0.2-0.54,0.29
			c-0.6,0.32,0.5-0.19-0.13,0.06c-0.37,0.15-1.06,0.4-1.3,0.46c-1.7,0.46-3.81,0.4-5.66-0.07c-2.03-0.51-4.43,1.72-5.51,3.19
			c-0.66,0.9-2.52,3.99-0.43,4.51c9.82,2.47,20.35-5.15,23.02-14.55c1.12-3.94,1.07-8.7-1.96-11.83c-3.13-3.23-8.04-3.44-12.22-3.08
			c-1.33,0.12-2.66,0.29-3.99,0.4c-0.62,0.05-0.03-0.04-0.03,0.01c-0.06-0.55-0.11-1.1-0.13-1.66c-0.1-2.73,0.18-5.46,0.73-8.13
			c0.47-2.25-2.45-1.65-3.54-1.01C696.17,817.04,694.42,818.97,693.93,821.29L693.93,821.29z"/>
	</g>
</g>
<g>
	<g>
		<path class="st1" d="M221.37,683.18c2.35,17.86-3.8,35.47-4.03,53.28c-0.03,2.16,2.16,1.82,3.54,1.01c1.68-1,4.21-3.24,4.24-5.43
			c0.23-18.37,6.37-36.34,3.95-54.79c-0.1-0.77-1.04-0.97-1.64-0.92c-0.98,0.08-2.14,0.76-2.88,1.35
			C222.98,678.93,221.08,680.98,221.37,683.18L221.37,683.18z"/>
	</g>
</g>
<g>
	<g>
		<path class="st1" d="M226.64,680.55c0.12-0.13,0.26-0.25,0.38-0.38c0.36-0.41-0.29,0.27-0.34,0.28c0.13-0.04,0.74-0.71,0.84-0.64
			c0.04,0.02-0.78,0.45-0.28,0.2c0.16-0.08,0.3-0.18,0.46-0.26c0.15-0.08,0.31-0.16,0.47-0.24c0.52-0.29-0.59,0.2-0.01,0.02
			c0.68-0.22,1.33-0.5,2.02-0.68c0.39-0.11,0.06-0.01-0.02,0c0.18-0.04,0.35-0.07,0.53-0.11c0.42-0.08,0.84-0.15,1.26-0.2
			c1.44-0.18,2.97-0.25,4.38-0.16c1.22,0.07,2.95,0.11,4.07,0.76c2.94,1.68,0.89,5.57-0.13,7.85c-0.08,0.18-0.16,0.35-0.24,0.53
			c0.03-0.07,0.26-0.53,0.04-0.1c-0.17,0.35-0.34,0.7-0.52,1.04c-0.38,0.74-0.79,1.47-1.23,2.19c-0.2,0.32-0.66,0.92-0.17,0.27
			c-0.23,0.3-0.44,0.62-0.68,0.92c-0.12,0.15-0.25,0.29-0.36,0.45c-0.34,0.47,0.22-0.29,0.27-0.28c-0.11-0.02-0.8,0.84-0.92,0.95
			c-0.05,0.04-0.42,0.33-0.41,0.39c-0.01-0.16,0.78-0.63,0.13-0.15c-0.15,0.11-0.31,0.22-0.45,0.34c-0.5,0.42,0.65-0.35,0.07-0.04
			c-0.43,0.23-0.84,0.5-1.28,0.71c0.5-0.23-0.61,0.21-0.79,0.27c-1.68,0.58-3.66,0.75-5.6,0.69c-0.92-0.03-2.22,0.84-2.88,1.35
			c-0.96,0.74-1.99,1.81-2.56,2.89c-0.79,1.5-1.21,3.47,1.01,3.54c10.48,0.33,18.61-7.48,22.89-16.4c1.86-3.88,4.64-9.09,2.04-13.23
			c-1.14-1.81-3.32-2.33-5.31-2.53c-2-0.21-4.04-0.28-6.05-0.11c-5.3,0.46-10.26,2.75-13.97,6.58c-0.95,0.99-3.3,3.77-1.87,5.2
			C222.83,683.82,225.76,681.46,226.64,680.55L226.64,680.55z"/>
	</g>
</g>
<g>
	<g>
		<path class="st1" d="M272.59,666.9c-2.86-1.72-6.15,0.66-8.22,2.66c-1.9,1.84-3.48,4.01-4.91,6.22c-2.47,3.8-4.3,8.3-4.66,12.85
			c-0.27,3.38,0.03,10.4,5.15,9.35c3.32-0.68,5.59-3.64,7.53-6.2c1.46-1.94,2.85-3.95,4.07-6.04c2.75-4.71,4.5-9.84,4.13-15.33
			c-0.11-1.65-2.85-0.67-3.5-0.25c-2.31,1.47-4.16,3.44-5.2,5.99c-0.62,1.54-0.97,3.26-1.27,4.88c-0.56,3-0.6,6.29,0.46,9.19
			c1,2.72,2.76,4.93,5.38,6.22c2.99,1.47,6.23,0.89,9.1-0.52c1.86-0.92,4.07-3.28,4.24-5.43c0.19-2.33-2.27-1.63-3.54-1.01
			c0.44-0.2,0.44-0.22,0-0.05c0.33-0.06,0.28-0.05-0.13,0.02c-0.27,0.03-0.89,0.08-1,0.08c-0.91-0.05-1.93-0.36-2.73-0.79
			c-1.52-0.82-2.75-2.36-3.41-3.93c-0.8-1.91-1.06-3.92-0.89-5.98c0.09-1.03,0.25-2.13,0.48-3.1c0.12-0.54,0.27-1.09,0.45-1.61
			c0.06-0.21,0.14-0.41,0.22-0.62c-0.79,1.19-0.94,1.49-0.46,0.91c-0.63,0.63-1.25,1.25-1.88,1.88c-0.17,0.1-0.34,0.2-0.51,0.3
			c-1.17-0.08-2.33-0.17-3.5-0.25c0.06,0.92-0.02,1.86-0.14,2.77c-0.07,0.51-0.15,1.03-0.27,1.53c0.1-0.44-0.15,0.53-0.17,0.62
			c-0.3,1.01-0.68,1.99-1.1,2.95c0.31-0.71-0.35,0.69-0.41,0.82c-0.19,0.36-0.38,0.71-0.58,1.06c-0.27,0.47-0.54,0.93-0.83,1.39
			c-0.1,0.16-1.05,1.57-0.43,0.68c-0.54,0.78-1.09,1.54-1.66,2.3c-0.32,0.43-0.65,0.85-0.98,1.27c-0.16,0.2-0.32,0.4-0.48,0.6
			c0.81-1.27,1.88-1.93,3.19-1.99c-0.18,0.22-0.85-0.71-0.98-0.97c-0.71-1.47-0.69-3.39-0.57-4.97c0.15-2.05,0.42-3.21,1.13-5.09
			c0.16-0.42,0.33-0.84,0.51-1.26c0.2-0.45,0.21-0.47,0.04-0.08c0.12-0.23,0.23-0.47,0.36-0.7c0.24-0.46,0.5-0.91,0.77-1.36
			c0.14-0.22,0.27-0.44,0.42-0.66c-0.28,0.41-0.33,0.48-0.13,0.2c0.54-0.74,1.07-1.74,1.78-2.32c-1.46,1.19,1.32-0.97-0.35,0.31
			c-0.41,0.31-1.13,0.81-1.57,0.54c1.75,1.05,3.99-0.62,5.2-1.87c0.83-0.86,1.62-1.84,2.01-2.99
			C272.92,668.55,273.24,667.29,272.59,666.9L272.59,666.9z"/>
	</g>
</g>
<g>
	<g>
		<path class="st1" d="M305.31,674.32c0.02-0.09,0.03-0.18,0.05-0.28c-0.22,0.62-0.45,1.24-0.67,1.86
			c-0.13,0.18-0.26,0.37-0.39,0.55c-0.63,0.63-1.25,1.25-1.88,1.88c-0.14,0.12-1.45,0.58-0.67,0.47c0.18-0.03,0.41-0.1,0.58-0.15
			c1.02-0.31,1.96-0.84,2.81-1.47c1.82-1.35,3.83-3.61,3.91-6.02c0.08-2.49-2-4.49-4.02-5.57c-5.51-2.93-11.79,1.38-14.95,5.83
			c-3.46,4.88-4.26,11.41-2.89,17.18c0.62,2.6,1.82,5.27,4.37,6.44c3.22,1.47,6.76-0.87,8.97-3.08c2.31-2.32,4.02-5.41,5.43-8.34
			c1.45-3.01,2.61-6.18,2.75-9.55c0.09-2.18-2.2-1.8-3.54-1.01c-1.73,1.02-4.15,3.21-4.24,5.43c-0.07,1.82-0.28,2.84-0.86,4.44
			c-0.16,0.43-0.33,0.86-0.51,1.28c-0.08,0.18-0.16,0.36-0.24,0.54c0.04-0.08,0.26-0.5,0.03-0.08c-0.44,0.81-0.85,1.64-1.32,2.44
			c-0.2,0.34-0.4,0.68-0.61,1.02c-0.09,0.16-0.65,1.14-0.33,0.56c0.34-0.61-0.38,0.46-0.45,0.57c0.31-0.58,1.05-1.11,1.63-1.4
			c0.01,0,0.43-0.16,0.44-0.18c-0.03,0.04-0.42-0.03-0.3,0c-0.1-0.03-0.56-0.17-0.77-0.27c-0.64-0.32-1.18-0.94-1.56-1.54
			c-1.76-2.69-1.88-6.64-1.58-9.74c0.04-0.4,0.09-0.81,0.15-1.21c0.02-0.13,0.17-0.92,0.11-0.7c0.11-0.46,0.33-0.89,0.43-1.34
			c0.1-0.41,0-0.07-0.05,0.05c0.09-0.21,0.22-0.41,0.32-0.61c0.41-0.76-0.47,0.52,0.1-0.13c0,0-0.73,0.74-0.31,0.35
			c0.1-0.1,0.3-0.25,0.37-0.36c-0.35,0.61-0.64,0.54-0.21,0.23c-0.02,0.01-0.75,0.48-0.29,0.22c0.41-0.23-0.16,0.06-0.21,0.08
			c0.22-0.07,0.43-0.16,0.65-0.23c-0.63,0.21,0.37-0.02,0.61-0.03c-0.01,0,0.49,0.01,0.23-0.01c-0.19-0.01,0.33,0.05,0.38,0.06
			c0.73,0.12,1.53,0.35,2.17,0.73c0.38,0.23,0.98,0.75,1.36,1.17c0.27,0.29,0.55,0.62,0.73,0.98c-0.04-0.08-0.03-0.04,0.04,0.13
			c0.38,0.9-0.25,0.53,0.6-0.87c0.52-0.67,1.04-1.34,1.56-2.01c0.68-0.47,1.36-0.94,2.04-1.41c-0.14,0.05-0.29,0.09-0.43,0.13
			c-0.19,0.04-0.39,0.09-0.58,0.15c-0.88,0.27-1.68,0.73-2.44,1.23c-2.07,1.38-3.86,3.51-4.28,6.02c-0.38,2.24,2.4,1.68,3.54,1.01
			C303.01,678.61,304.93,676.63,305.31,674.32L305.31,674.32z"/>
	</g>
</g>
<g>
	<g>
		<path class="st1" d="M302.25,678.22c0.65,10.04,0.08,20.13-0.67,30.15c-0.76,10.11-1.91,20.25-1.94,30.39
			c0,1.38,0.03,2.76,0.1,4.15c0.06,1.22-0.06,2.8,0.38,3.95c0.87,2.23,3.82,0.59,5.05-0.36c1.71-1.34,4.17-4.08,2.86-6.37
			c-0.36-0.63-1.78-0.29-2.21-0.14c-1.08,0.37-2.21,1.2-2.99,2.01c-1.24,1.29-2.92,3.37-1.87,5.2c0.03,0.05,0.05,0.09,0.08,0.14
			c-0.05-0.74-0.09-1.47-0.14-2.21c-0.02,0.05-0.05,0.11-0.07,0.16c1-1.29,2.01-2.58,3.01-3.87c-0.05,0.04-0.11,0.07-0.16,0.11
			c0.96-0.45,1.92-0.9,2.88-1.35c-0.06,0-0.12,0-0.19,0c0.44,0.12,0.88,0.24,1.32,0.36c0.08,0.08-0.04,0.3,0.01,0.01
			c0.05-0.26-0.07-0.59-0.09-0.87c-0.04-0.44-0.07-0.88-0.1-1.33c-0.07-1.17-0.09-2.35-0.09-3.52c-0.01-2.2,0.07-4.4,0.18-6.59
			c0.22-4.5,0.55-9,0.91-13.49c0.71-8.99,1.51-17.97,1.74-26.99c0.13-5.16,0.04-10.32-0.29-15.47c-0.05-0.77-1.09-0.97-1.64-0.92
			c-0.98,0.08-2.14,0.76-2.88,1.35C303.76,674.05,302.1,675.96,302.25,678.22L302.25,678.22z"/>
	</g>
</g>
<g>
	<g>
		<path class="st1" d="M317.42,673.56c1.31-0.11,2.6-0.26,3.66,0.76c0.22,0.21,0.42,0.45,0.58,0.71c0.16,0.25,0.03,0.06,0.01,0.01
			c0.08,0.16,0.14,0.33,0.2,0.5c0.11,0.3,0.18,0.61,0.24,0.92c0.03,0.18,0.06,0.36,0.08,0.54c0.05,0.45,0.02-0.38-0.01,0.07
			c-0.01,0.32-0.03,0.64-0.07,0.95c-0.03,0.23-0.07,0.45-0.12,0.68c0.03-0.15,0.17-0.57-0.03,0.11c-0.24,0.83-0.54,1.64-0.82,2.46
			c-0.64,1.82-1.16,3.71-1.32,5.64c-0.15,1.82-0.26,4.02,0.83,5.59c1.14,1.67,3.44,1.51,5.14,0.99c4.4-1.34,7.5-5.51,9.72-9.29
			c2.12-3.62,3.81-7.51,4.98-11.54c0.19-0.66,0.44-1.63-0.14-2.21c-0.55-0.55-1.59-0.38-2.21-0.14c-2.03,0.77-4.37,2.84-5,5
			c-0.45,1.53-0.96,3.04-1.56,4.52c-0.13,0.33-0.27,0.66-0.41,0.98c-0.11,0.25-0.54,1.2-0.2,0.48c-0.35,0.75-0.73,1.49-1.12,2.21
			c-0.36,0.68-0.75,1.34-1.15,2c-0.09,0.15-0.66,1.02-0.25,0.43c0.38-0.55,0.07-0.1-0.01,0.01c-0.15,0.21-0.3,0.42-0.46,0.62
			c-0.09,0.12-0.21,0.23-0.29,0.36c-0.02,0.03,0.76-0.83,0.36-0.43c-0.39,0.38,0.45-0.37,0.44-0.36c-0.07,0.02-0.46,0.35-0.48,0.37
			c-0.01,0.02,0.8-0.57,0.36-0.28c-0.4,0.27,0.32-0.16,0.33-0.16c-0.12,0.07-0.47,0.06-0.1,0.04c0.6-0.03-0.59-0.08,0.11,0
			c-0.42-0.05-0.66-0.12-0.82-0.36c-0.35-0.51-0.35-1.36-0.35-1.76c0-1.64,0.24-3.22,0.62-4.37c0.98-3.03,2.35-6.1,1.61-9.35
			c-0.32-1.4-1.12-2.82-2.37-3.57c-1.71-1.02-3.59-1.06-5.54-0.9c-2.2,0.18-4.46,2.38-5.43,4.24
			C315.73,671.31,315.12,673.75,317.42,673.56L317.42,673.56z"/>
	</g>
</g>
<g>
	<g>
		<path class="st1" d="M334.48,671.03c-2.76,3.65-3.69,7.81-3.74,12.31c-0.05,4.51-0.03,9.09,0.67,13.55
			c0.12,0.76,1.02,0.97,1.64,0.92c0.98-0.08,2.14-0.76,2.88-1.35c1.54-1.23,3.53-3.33,3.19-5.51c-0.59-3.76-0.6-7.55-0.59-11.34
			c0-1.59,0.04-3.18,0.28-4.76c0.05-0.34,0.11-0.69,0.19-1.03c-0.13,0.6,0.2-0.64,0.25-0.76c0.07-0.2,0.55-1.05,0.08-0.27
			c0.1-0.2,0.22-0.4,0.33-0.59c-0.37,0.53-0.4,0.59-0.09,0.16c0.73-0.97,2.46-3.9,0.43-4.51
			C338.03,667.25,335.49,669.7,334.48,671.03L334.48,671.03z"/>
	</g>
</g>
<g>
	<g>
		<path class="st1" d="M349.59,683.48c2.94-0.15,5.8,0.3,8.68-0.5c3.6-1,6.85-3.78,8.53-7.09c1.34-2.64,1.6-5.87,0.34-8.6
			c-1.16-2.51-3.22-4.2-6.09-4.09c-3.61,0.15-6.96,2.92-9.07,5.63c-2.05,2.63-3.03,5.8-3.55,9.04c-0.9,5.68-0.35,11.72,1.64,17.11
			c0.56,1.51,1.17,3.08,2.95,3.36c2.09,0.33,4.16-1.08,5.77-2.2c2.81-1.94,5.53-4.01,8.21-6.13c1.39-1.09,3.8-3.5,3.19-5.51
			c-0.62-2.04-3.62-0.28-4.51,0.43c-1.71,1.34-3.44,2.66-5.19,3.95c-0.81,0.6-1.63,1.19-2.45,1.77c-0.17,0.12-0.38,0.33-0.57,0.4
			c0.17-0.06,0.3-0.23,0.46-0.31c0.96-0.45,0.54,0.13,0.34-0.5c-0.59-1.85-1.33-3.6-1.75-5.52c-0.42-1.95-0.69-3.94-0.71-5.93
			c-0.02-2.02,0.15-4.04,0.51-6.03c0.16-0.89,0.26-1.21,0.55-2.11c0.24-0.72,0.11-0.35,0.02-0.15c0.08-0.18,0.2-0.35,0.29-0.53
			c0.22-0.47-0.06,0.09-0.12,0.17c-0.1,0.12-1.18,1.04-0.71,0.69c0.46-0.35-0.78,0.65-0.41,0.25c0.24-0.26-0.2,0,0.15-0.05
			c0.17-0.03,0.36-0.06,0.53-0.05c0.45,0.02,1.17,0.33,1.63,0.73c1.15,1.01,1.81,2.58,1.92,4.09c0.03,0.46-0.12,0.91-0.1,1.36
			c0.02,0.46-0.07,0.09-0.02,0.04c0.22-0.23,0.39-0.61,0.61-0.86c0.19-0.22,0.4-0.46,0.63-0.64c0.14-0.11,0.97-0.48,0.53-0.36
			c-0.18,0.05-0.35,0.13-0.53,0.18c0.34-0.1-0.09,0.02-0.21,0.04c-2.34,0.37-4.71,0-7.06,0.12c-2.18,0.11-4.48,2.43-5.43,4.24
			C347.88,681.29,347.31,683.6,349.59,683.48L349.59,683.48z"/>
	</g>
</g>
<g>
	<g>
		<path class="st1" d="M376.07,650.72c2.21,15.16,1.53,30.83-2.18,45.71c-0.17,0.68-0.45,1.62,0.14,2.21
			c0.55,0.55,1.59,0.38,2.21,0.14c2.03-0.77,4.37-2.84,5-5c0.27-0.91,0.53-1.83,0.8-2.74c0.19-0.66,0.44-1.63-0.14-2.21
			c-0.55-0.55-1.59-0.38-2.21-0.14c-2.03,0.77-4.37,2.84-5,5c-0.27,0.91-0.53,1.83-0.8,2.74c2.45-0.88,4.9-1.77,7.35-2.65
			c4-16.04,4.92-32.62,2.53-48.99c-0.11-0.76-1.03-0.97-1.64-0.92c-0.98,0.08-2.14,0.76-2.88,1.35
			C377.7,646.46,375.75,648.53,376.07,650.72L376.07,650.72z"/>
	</g>
</g>
<g>
	<g>
		<path class="st1" d="M379.56,674.27c4.55-1.88,8.99-4.05,13.25-6.52c1.1-0.64,2.12-1.55,2.89-2.56c0.55-0.72,1.32-1.91,1.35-2.88
			c0.02-0.68-0.12-1.46-0.92-1.64c-0.89-0.2-1.87,0.2-2.62,0.63c-1.94,1.13-3.92,2.19-5.93,3.19c-0.49,0.24-0.97,0.48-1.46,0.71
			c-0.14,0.07-0.28,0.13-0.42,0.2c0.62-0.29,0.74-0.34,0.34-0.16c-0.21,0.1-0.42,0.19-0.63,0.29c-1.06,0.48-2.12,0.94-3.2,1.38
			c-1.13,0.47-2.12,1.15-2.99,2.01c-0.78,0.78-1.68,1.91-2.01,2.99c-0.2,0.64-0.49,1.69,0.14,2.21
			C377.97,674.64,378.87,674.56,379.56,674.27L379.56,674.27z"/>
	</g>
</g>
<g>
	<g>
		<path class="st1" d="M408.83,669.6c0.26-1.05,0.53-2.19-0.3-3.08c-0.79-0.86-2.1-0.8-3.16-0.83c-2.04-0.05-4.02,0.3-5.83,1.3
			c-3.92,2.16-7.75,7.4-5.44,11.95c0.79,1.55,1.98,2.65,3.47,3.52c1.33,0.78,3.06,1.23,4.23,2.22c0.55,0.46,0.65,0.82,0.63,1.5
			c-0.01,0.5,0.03,0.15-0.13,0.58c-0.06,0.16-0.14,0.34-0.18,0.5c-0.14,0.55,0.3-0.49,0.01,0c-0.09,0.16-0.67,1.04-0.31,0.57
			c0.37-0.49-0.02,0-0.08,0.08c-0.68,0.76,0.16-0.19,0.18-0.19c-0.06,0-0.33,0.33-0.38,0.38c-0.39,0.41,0.29-0.3,0.32-0.29
			c-0.06-0.01-0.38,0.28-0.43,0.32c-0.49,0.39,0.68-0.34,0.11-0.09c-0.16,0.07-0.32,0.17-0.47,0.26c0.34-0.19,0.37-0.15,0-0.02
			c-0.17,0.06-0.34,0.12-0.51,0.18c-0.08,0.03-0.81,0.22-0.34,0.1c-1.93,0.5-3.43,1.24-4.91,2.62c-1.22,1.14-2.55,2.86-2.7,4.61
			c-0.1,1.13,0.34,2.31,1.55,2.56c2.07,0.43,4.39-1.66,5.51-3.19c0.61-0.84,2.55-4.08,0.43-4.51c0.61,0.46,0.55,1.15-0.17,2.09
			c-0.52,0.67-1.04,1.34-1.56,2.01c0.09-0.08,0.18-0.16,0.27-0.24c-0.67,0.52-1.34,1.04-2.01,1.56c-0.9,0.49,0.03,0.09,0.61-0.06
			c0.41-0.11,0.8-0.22,1.2-0.37c0.89-0.34,1.76-0.76,2.58-1.24c2.15-1.27,4.03-2.95,5.61-4.88c2.18-2.66,5.13-7.78,2.93-11.15
			c-0.86-1.31-2.52-1.84-3.88-2.48c-1.41-0.66-2.91-1.53-3.78-2.86c-0.33-0.5-0.54-1.08-0.62-1.68c0-0.01-0.04-0.86-0.04-0.51
			c-0.08,0.22-0.05,0.15,0.07-0.2c-0.54,1.18-1.35,2.11-2.43,2.79c-0.24,0.11-0.89,0.24-0.15,0.14c0.37-0.05,0.74-0.08,1.12-0.1
			c0.36-0.01,0.77-0.05,1.13,0c0.48,0.06,0.42,0.08,0.43,0.12c0.06-0.55,0.12-1.1,0.18-1.64c-0.02,0.1-0.05,0.2-0.07,0.29
			c-0.17,0.68-0.45,1.62,0.14,2.21c0.55,0.55,1.59,0.38,2.21,0.14C405.78,673.86,408.29,671.75,408.83,669.6L408.83,669.6z"/>
	</g>
</g>
<g>
	<g>
		<path class="st1" d="M472.35,672.53c0.46-2.24-0.42-4.6-2.08-6.13c-1.84-1.69-4.31-2.28-6.76-2.03c-5.79,0.6-11.2,4.78-14.84,9.07
			c-3.15,3.71-5.53,9.25-3.61,14.08c0.83,2.08,2.24,3.72,4.32,4.59c3.24,1.36,6.69-0.66,8.98-2.88c2.46-2.39,3.85-5.63,5.08-8.77
			c1.15-2.93,2-5.95,2.69-9.01c0.15-0.7-0.25-1.43-0.92-1.64c-0.8-0.24-1.97,0.25-2.62,0.63c-2.03,1.2-3.72,3.1-4.24,5.43
			c-0.05,0.24-0.11,0.48-0.16,0.72c0.11-0.46-0.03,0.13-0.05,0.19c-0.12,0.48-0.25,0.95-0.39,1.43c-0.27,0.95-0.57,1.89-0.89,2.82
			c-0.32,0.93-0.67,1.85-1.04,2.77c-0.19,0.46-0.38,0.91-0.58,1.36c-0.07,0.17-0.15,0.34-0.23,0.51c-0.23,0.54,0.32-0.61-0.03,0.06
			c-0.08,0.14-0.63,0.94-0.59,1.05c-0.05-0.13,0.58-0.84,0.16-0.29c0.31-0.4,0.65-0.77,1.05-1.08c0.3-0.24,0.62-0.42,0.96-0.6
			c0.2-0.11,0.59-0.02,0.03-0.06c-0.09-0.01-0.52-0.07-0.12,0c-0.19-0.03-0.39-0.07-0.58-0.13c-1.26-0.36-2.48-1.61-2.95-2.64
			c-0.3-0.64-0.51-1.33-0.63-2.03c-0.03-0.19-0.05-0.38-0.08-0.57c-0.01-0.07-0.03-0.55-0.02-0.11c-0.01-0.43,0.01-0.87,0.06-1.3
			c0.04-0.34,0.1-0.67,0.16-1c-0.15,0.77,0.12-0.28,0.2-0.51c0.07-0.18,0.14-0.41,0.24-0.57c-0.07,0.11-0.43,0.78-0.04,0.14
			c0.07-0.12,0.3-0.43,0.31-0.54c-0.05,0.35-0.54,0.76-0.07,0.11c0.22-0.29,0.46-0.56,0.68-0.85c-0.87,1.18-0.1,0.18,0.2-0.14
			c0.59-0.61-0.21,0.18-0.3,0.25c0.17-0.12,0.32-0.27,0.48-0.4c0.37-0.3,0.75-0.57,1.13-0.85c0.51-0.38-0.8,0.49-0.22,0.14
			c0.2-0.12,0.39-0.25,0.59-0.36c0.35-0.21,0.71-0.4,1.07-0.59c0.7-0.37,0.11-0.04-0.03,0.01c0.22-0.08,0.43-0.18,0.64-0.26
			c0.22-0.08,0.44-0.15,0.65-0.22c0.11-0.03,0.22-0.06,0.33-0.1c-0.28,0.06-0.3,0.07-0.06,0.02c1.74-0.2,3.25-0.19,4.62,0.91
			c0.34,0.27,0.65,0.58,0.93,0.91c0.12,0.15,0.24,0.3,0.35,0.46c0.18,0.26,0.09,0.12,0.17,0.29c0.18,0.39,0.27,0.78,0.36,1.19
			c0.03,0.12-0.01,0.51,0.01,0.07c-0.02,0.28-0.06,0.56-0.12,0.84c-0.15,0.7,0.25,1.43,0.92,1.64c0.8,0.24,1.97-0.25,2.62-0.63
			C470.11,676.78,471.87,674.86,472.35,672.53L472.35,672.53z"/>
	</g>
</g>
<g>
	<g>
		<path class="st1" d="M466.24,646.04c0.8,7.41,0.7,14.89-0.25,22.29c-0.95,7.32-3.22,14.52-3.06,21.95
			c0.05,2.13,2.11,1.85,3.54,1.01c1.1-0.65,2.13-1.52,2.89-2.56c0.57-0.78,1.37-1.86,1.35-2.88c-0.17-7.59,2.19-14.95,3.12-22.43
			c0.96-7.73,0.95-15.56,0.11-23.31c-0.08-0.77-1.06-0.97-1.64-0.92c-0.98,0.08-2.14,0.76-2.88,1.35
			C467.82,641.82,466,643.82,466.24,646.04L466.24,646.04z"/>
	</g>
</g>
<g>
	<g>
		<path class="st1" d="M480.59,672.97c-0.26,0.21-0.53,0.43-0.79,0.64c-1.32,1.07-2.78,2.59-3.12,4.31
			c-0.25,1.28,0.16,2.13,1.57,2.12c2.99-0.03,5.96-0.35,8.88-1.03c4.48-1.04,7.64-4.98,8.13-9.48c0.3-2.78-0.19-5.89-1.89-8.17
			c-1.99-2.67-5.34-2.28-7.97-0.83c-2.97,1.65-5.51,4.35-7.58,7.02c-1.84,2.38-3.47,5.13-4.27,8.05c-0.74,2.72-0.9,5.6,0.07,8.29
			c0.88,2.42,2.44,4.85,4.26,6.68c2.29,2.32,5.44,3.28,8.57,2.17c1.86-0.66,3.42-1.94,4.94-3.17c1.36-1.11,2.72-2.21,4.08-3.32
			c1.37-1.12,3.8-3.48,3.19-5.51c-0.61-2.02-3.63-0.3-4.51,0.43c-0.99,0.8-1.98,1.61-2.97,2.42c-0.23,0.19-2.8,2.08-2.75,2.21
			c-0.16-0.4,1.55-0.4,0.43-0.35c-0.43,0.02-0.77-0.04-1.18-0.16c-0.83-0.24-1.49-0.66-2.14-1.23c-2.87-2.5-5.23-6.54-4.71-10.44
			c0.11-0.85,0.32-1.5,0.74-2.52c0.2-0.45,0.21-0.49,0.05-0.12c0.09-0.18,0.19-0.36,0.29-0.54c0.1-0.18,0.87-1.41,0.29-0.55
			c0.31-0.45,0.64-0.89,0.98-1.32c0.17-0.21,0.35-0.43,0.53-0.63c-0.43,0.48-0.45,0.51-0.05,0.09c0.37-0.36,0.72-0.86,1.16-1.14
			c-0.5,0.43-0.53,0.46-0.08,0.1c-0.47,0.28-0.47,0.28-0.01,0.01c-0.1,0.4-0.85-0.06-0.04,0.19c0.24,0.08,0.46,0.14,0.66,0.27
			c0.71,0.45,1.23,1.26,1.53,2.02c0.39,0.99,0.65,2.09,0.7,3.15c0.03,0.61-0.05,1.21-0.12,1.81c-0.11,0.48-0.12,0.59-0.04,0.35
			c-0.15,0.46-0.15,0.45,0.01-0.02c0.52-0.67,1.04-1.34,1.56-2.01c0.15-0.14,0.3-0.28,0.45-0.41c0.66-0.38,1.32-0.76,1.99-1.13
			c-0.35,0.16-0.84,0.28-1.59,0.42c-0.78,0.14-1.57,0.26-2.35,0.36c-1.58,0.19-3.16,0.28-4.75,0.3c-0.52,2.14-1.03,4.29-1.55,6.43
			c0.26-0.21,0.53-0.43,0.79-0.64c1.38-1.11,3.8-3.48,3.19-5.51C484.49,670.52,481.48,672.25,480.59,672.97L480.59,672.97z"/>
	</g>
</g>
<g>
	<g>
		<path class="st1" d="M531.98,647.37c-1.7,14.76-3.06,29.56-4.08,44.38c-0.15,2.2,2.25,1.77,3.54,1.01
			c1.78-1.05,4.09-3.19,4.24-5.43c1.02-14.82,2.38-29.62,4.08-44.38c0.26-2.22-2.32-1.73-3.54-1.01
			C534.37,643.03,532.24,645.09,531.98,647.37L531.98,647.37z"/>
	</g>
</g>
<g>
	<g>
		<path class="st1" d="M565.31,649.84c-1.95-3.36-6.82-2.52-9.6-0.89c-4.37,2.55-7.05,7-8.81,11.6c-2.82,7.37-3.29,15.72-1.19,23.33
			c0.5,1.83,1.15,3.63,1.97,5.33c0.71,1.48,1.59,3.09,2.95,4.07c4.36,3.14,9.4-0.92,12.23-4.24c2.74-3.21,4.75-7.22,6.45-11.06
			c1.64-3.71,2.8-7.64,3.54-11.63c0.4-2.15,0.72-4.49-0.01-6.61c-0.61-1.79-1.82-3.38-3.28-4.56c-3.51-2.87-8.1-3.69-12.04-5.76
			c-0.67-0.35-2.11,0.35-2.62,0.63c-1.07,0.6-2.17,1.57-2.89,2.56c-0.91,1.25-2.29,3.53-0.43,4.51c4.51,2.38,12.55,3.39,13.78,9.42
			c0.28,1.39-0.05,2.87-0.31,4.24c-0.3,1.63-0.64,2.97-1.13,4.58c-0.43,1.38-0.92,2.74-1.46,4.08c-0.16,0.4-0.34,0.8-0.51,1.2
			c-0.54,1.28,0.17-0.33-0.18,0.4c-0.4,0.85-0.83,1.68-1.29,2.5c-0.35,0.63-0.71,1.26-1.09,1.87c-0.23,0.37-0.46,0.74-0.69,1.1
			c0.09-0.14,0.46-0.64-0.01,0.01c-0.17,0.23-0.43,0.75-0.68,0.9c0.13-0.14,0.26-0.29,0.38-0.43c-0.41,0.4-0.34,0.36,0.19-0.12
			c-0.22,0.18-0.71,0.39,0.12-0.07c0.56-0.31,0.57-0.1,0.25-0.15c-2.51-0.44-3.66-3.37-4.48-5.49c-2.22-5.75-2.8-11.97-1.71-18.03
			c0.28-1.56,0.64-2.86,1.19-4.44c0.14-0.4,0.29-0.8,0.45-1.19c0.05-0.14,0.69-1.6,0.38-0.94c0.11-0.23,0.23-0.47,0.35-0.7
			c0.1-0.2,0.99-1.58,0.33-0.66c0.07-0.1,0.32-0.53,0.47-0.62c-0.47,0.51-0.5,0.57-0.1,0.16c-0.23,0.26-0.5,0.47-0.81,0.63
			c0.11-0.06,0.22-0.13,0.33-0.19c-0.5,0.23-0.53,0.26-0.09,0.1c-0.09,0.02-0.18,0.05-0.27,0.07c0.21-0.04,0.42-0.06,0.64-0.07
			c0.3-0.01,0.88,0.07,1.4,0.33c0.42,0.21,0.91,0.77,1.21,1.28c0.37,0.63,1.77,0.29,2.21,0.14c1.08-0.37,2.21-1.2,2.99-2.01
			C564.67,653.75,566.37,651.65,565.31,649.84L565.31,649.84z"/>
	</g>
</g>
</svg>
